=== RUN   TestIndexedList
--- PASS: TestIndexedList (0.01s)
=== RUN   TestAPIIntegration
2023/12/29 14:04:30 [DEBUG] Pre-cached tags
2023/12/29 14:04:30 [DEBUG] Pre-cached albums
2023/12/29 14:04:30 [REQUEST] (From: 127.0.0.1) POST /api/auth/login (645.5µs)
=== RUN   TestAPIIntegration/Account_API
2023/12/29 14:04:30 [REQUEST] (From: 127.0.0.1) GET /api/account (0s)
2023/12/29 14:04:30 [REQUEST] (From: 127.0.0.1) GET /api/account (998.7µs)
2023/12/29 14:04:30 [REQUEST] (From: 127.0.0.1) POST /api/account/username (1.0006ms)
2023/12/29 14:04:30 [REQUEST] (From: 127.0.0.1) POST /api/account/password (1.0007ms)
2023/12/29 14:04:30 [REQUEST] (From: 127.0.0.1) POST /api/auth/login (999.7µs)
2023/12/29 14:04:30 [REQUEST] (From: 127.0.0.1) POST /api/auth/logout (0s)
=== RUN   TestAPIIntegration/Admin_API
2023/12/29 14:04:30 [REQUEST] (From: 127.0.0.1) POST /api/admin/accounts (1.0006ms)
2023/12/29 14:04:30 [REQUEST] (From: 127.0.0.1) GET /api/admin/accounts (0s)
2023/12/29 14:04:30 [REQUEST] (From: 127.0.0.1) POST /api/auth/login (0s)
2023/12/29 14:04:30 [REQUEST] (From: 127.0.0.1) POST /api/auth/logout (0s)
2023/12/29 14:04:30 [REQUEST] (From: 127.0.0.1) POST /api/admin/accounts/delete (0s)
2023/12/29 14:04:30 [REQUEST] (From: 127.0.0.1) GET /api/admin/accounts (0s)
=== RUN   TestAPIIntegration/Media_API
=== RUN   TestAPIIntegration/Media_API/Video
2023/12/29 14:04:30 [DEBUG] [FFPROBE] Probing temp/pmv_tmp_1703855070589_6
2023/12/29 14:04:30 [REQUEST] (From: 127.0.0.1) POST /api/upload (55.6558ms)
2023/12/29 14:04:30 [REQUEST] (From: 127.0.0.1) GET /api/media/0 (1.479ms)
2023/12/29 14:04:30 [REQUEST] (From: 127.0.0.1) GET /api/media/0 (999.7µs)
2023/12/29 14:04:30 [DEBUG] [FFPROBE] Probing temp/pmv_tmp_1703855070589_6
2023/12/29 14:04:30 [DEBUG] [FFPROBE] Probing temp/pmv_tmp_1703855070589_16/original
2023/12/29 14:04:30 [DEBUG] [FFPROBE] Probing temp/pmv_tmp_1703855070589_6
2023/12/29 14:04:30 [REQUEST] (From: 127.0.0.1) GET /api/media/0 (516.2µs)
2023/12/29 14:04:30 [REQUEST] (From: 127.0.0.1) GET /api/media/0 (0s)
2023/12/29 14:04:30 [REQUEST] (From: 127.0.0.1) GET /api/media/0/size_stats (0s)
2023/12/29 14:04:30 [DEBUG] Running command: C:\\ffmpeg\bin\ffmpeg.exe -y -progress pipe:1 -f mov,mp4,m4a,3gp,3g2,mj2 -i temp/pmv_tmp_1703855070589_16/original -vf fps=1/3,scale=256:144:force_original_aspect_ratio=decrease,pad=256:144:(ow-iw)/2:(oh-ih)/2 -t 10.007 temp/pmv_tmp_1703855070589_16/thumb_%d.jpg
2023/12/29 14:04:30 [REQUEST] (From: 127.0.0.1) GET /assets/b/0/1/original_0.mp4 (8.2251ms)
2023/12/29 14:04:30 [REQUEST] (From: 127.0.0.1) GET /assets/b/0/0/thumbnail.jpg (0s)
2023/12/29 14:04:30 [REQUEST] (From: 127.0.0.1) POST /api/media/0/edit/title (1.6396ms)
2023/12/29 14:04:30 [REQUEST] (From: 127.0.0.1) GET /api/media/0 (0s)
2023/12/29 14:04:30 [REQUEST] (From: 127.0.0.1) POST /api/media/0/edit/description (1.1785ms)
2023/12/29 14:04:30 [REQUEST] (From: 127.0.0.1) GET /api/media/0 (517.7µs)
2023/12/29 14:04:30 [REQUEST] (From: 127.0.0.1) POST /api/media/0/edit/extra (1.5664ms)
2023/12/29 14:04:30 [REQUEST] (From: 127.0.0.1) GET /api/media/0 (513.1µs)
2023/12/29 14:04:30 [REQUEST] (From: 127.0.0.1) POST /api/media/0/edit/time_slices (1.0416ms)
2023/12/29 14:04:30 [REQUEST] (From: 127.0.0.1) GET /api/media/0 (589.9µs)
2023/12/29 14:04:30 [REQUEST] (From: 127.0.0.1) POST /api/media/0/edit/ext_desc (2.9774ms)
2023/12/29 14:04:30 [REQUEST] (From: 127.0.0.1) GET /api/media/0 (602.8µs)
2023/12/29 14:04:30 [DEBUG] [FFMPEG] ffmpeg version 6.1-full_build-www.gyan.dev Copyright (c) 2000-2023 the FFmpeg developers
2023/12/29 14:04:30 [DEBUG] [FFMPEG] 
  built with gcc 12.2.0 (Rev10, Built by MSYS2 project)
2023/12/29 14:04:30 [DEBUG] [FFMPEG] 
  configuration: --enable-gpl --enable-version3 --enable-static --pkg-config=pkgconf --disable-w32threads --disable-autodetect --enable-fontconfig --enable-iconv --enable-gnutls --enable-libxml2 --enable-gmp --enable-bzlib --enable-lzma --enable-libsnappy --enable-zlib --enable-librist --enable-libsrt --enable-libssh --enable-libzmq --enable-avisynth --enable-libbluray --enable-libcaca --enable-sdl2 --enable-libaribb24 --enable-libaribcaption --enable-libdav1d --enable-libdavs2 --enable-libuavs3d --enable-libzvbi --enable-librav1e --enable-libsvtav1 --enable-libwebp --enable-libx264 --enable-libx265 --enable-libxavs2 --enable-libxvid --enable-libaom --enable-libjxl --enable-libopenjpeg --enable-libvpx --enable-mediafoundation --enable-libass --enable-frei0r --enable-libfreetype --enable-libfribidi --enable-libharfbuzz --enable-liblensfun --enable-libvidstab --enable-libvmaf --enable-libzimg --enable-amf --enable-cuda-llvm --enable-cuvid --enable-ffnvcodec --enable-nvdec --enable-nvenc --enable-dxva2 --enable-d3d11va --enable-libvpl --enable-libshaderc --enable-vulkan --enable-libplacebo --enable-opencl --enable-libcdio --enable-libgme --enable-libmodplug --enable-libopenmpt --enable-libopencore-amrwb --enable-libmp3lame --enable-libshine --enable-libtheora --enable-libtwolame --enable-libvo-amrwbenc --enable-libcodec2 --enable-libilbc --enable-libgsm --enable-libopencore-amrnb --enable-libopus --enable-libspeex --enable-libvorbis --enable-ladspa --enable-libbs2b --enable-libflite --enable-libmysofa --enable-librubberband --enable-libsoxr --enable-chromaprint
2023/12/29 14:04:30 [DEBUG] [FFMPEG] 
  libavutil      58. 29.100 / 58. 29.100
2023/12/29 14:04:30 [DEBUG] [FFMPEG] 
  libavcodec     60. 31.102 / 60. 31.102
2023/12/29 14:04:30 [DEBUG] [FFMPEG] 
  libavformat    60. 16.100 / 60. 16.100
2023/12/29 14:04:30 [DEBUG] [FFMPEG] 
  libavdevice    60.  3.100 / 60.  3.100
2023/12/29 14:04:30 [DEBUG] [FFMPEG] 
  libavfilter     9. 12.100 /  9. 12.100
2023/12/29 14:04:30 [DEBUG] [FFMPEG] 
  libswscale      7.  5.100 /  7.  5.100
2023/12/29 14:04:30 [DEBUG] [FFMPEG] 
  libswresample   4. 12.100 /  4. 12.100
2023/12/29 14:04:30 [DEBUG] [FFMPEG] 
  libpostproc    57.  3.100 / 57.  3.100
2023/12/29 14:04:30 [REQUEST] (From: 127.0.0.1) GET /assets/b/0/2/ext_desc.txt (0s)
2023/12/29 14:04:30 [DEBUG] [FFPROBE] Probing temp/pmv_tmp_1703855070589_24
2023/12/29 14:04:30 [DEBUG] [FFMPEG] 
Input #0, mov,mp4,m4a,3gp,3g2,mj2, from 'temp/pmv_tmp_1703855070589_16/original':
2023/12/29 14:04:30 [DEBUG] [FFMPEG] 
  Metadata:
2023/12/29 14:04:30 [DEBUG] [FFMPEG] 
    major_brand     : isom
2023/12/29 14:04:30 [DEBUG] [FFMPEG] 
    minor_version   : 512
2023/12/29 14:04:30 [DEBUG] [FFMPEG] 
    compatible_brands: isomiso2avc1mp41
2023/12/29 14:04:30 [DEBUG] [FFMPEG] 
    encoder         : Lavf59.27.100
2023/12/29 14:04:30 [DEBUG] [FFMPEG] 
  Duration: 00:00:10.01, start: 0.000000, bitrate: 1246 kb/s
2023/12/29 14:04:30 [DEBUG] [FFMPEG] 
  Stream #0:0[0x1](und): Video: h264 (High) (avc1 / 0x31637661), yuv420p(progressive), 1280x720 [SAR 1:1 DAR 16:9], 1111 kb/s, 24 fps, 24 tbr, 12288 tbn (default)
2023/12/29 14:04:30 [DEBUG] [FFMPEG] 
    Metadata:
2023/12/29 14:04:30 [DEBUG] [FFMPEG] 
      handler_name    : (C) 2007 Google Inc. v08.13.2007.
2023/12/29 14:04:30 [DEBUG] [FFMPEG] 
      vendor_id       : [0][0][0][0]
2023/12/29 14:04:30 [DEBUG] [FFMPEG] 
      encoder         : Lavc59.37.100 libx264
2023/12/29 14:04:30 [DEBUG] [FFMPEG] 
  Stream #0:1[0x2](und): Audio: aac (LC) (mp4a / 0x6134706D), 48000 Hz, stereo, fltp, 128 kb/s (default)
2023/12/29 14:04:30 [DEBUG] [FFMPEG] 
    Metadata:
2023/12/29 14:04:30 [DEBUG] [FFMPEG] 
      handler_name    : (C) 2007 Google Inc. v08.13.2007.
2023/12/29 14:04:30 [DEBUG] [FFMPEG] 
      vendor_id       : [0][0][0][0]
2023/12/29 14:04:30 [DEBUG] [FFMPEG] 
Stream mapping:
2023/12/29 14:04:30 [DEBUG] [FFMPEG] 
  Stream #0:0 -> #0:0 (h264 (native) -> mjpeg (native))
2023/12/29 14:04:30 [DEBUG] [FFMPEG] 
Press [q] to stop, [?] for help
2023/12/29 14:04:30 [DEBUG] [FFMPEG] 
[swscaler @ 00000229a2d94340] deprecated pixel format used, make sure you did set range correctly
2023/12/29 14:04:30 [DEBUG] [FFMPEG] 
Output #0, image2, to 'temp/pmv_tmp_1703855070589_16/thumb_%d.jpg':
2023/12/29 14:04:30 [DEBUG] [FFMPEG] 
  Metadata:
2023/12/29 14:04:30 [DEBUG] [FFMPEG] 
    major_brand     : isom
2023/12/29 14:04:30 [DEBUG] [FFMPEG] 
    minor_version   : 512
2023/12/29 14:04:30 [DEBUG] [FFMPEG] 
    compatible_brands: isomiso2avc1mp41
2023/12/29 14:04:30 [DEBUG] [FFMPEG] 
    encoder         : Lavf60.16.100
2023/12/29 14:04:30 [DEBUG] [FFMPEG] 
  Stream #0:0(und): Video: mjpeg, yuvj420p(pc, progressive), 256x144 [SAR 1:1 DAR 16:9], q=2-31, 200 kb/s, 0.33 fps, 0.33 tbn (default)
2023/12/29 14:04:30 [DEBUG] [FFMPEG] 
    Metadata:
2023/12/29 14:04:30 [DEBUG] [FFMPEG] 
      handler_name    : (C) 2007 Google Inc. v08.13.2007.
2023/12/29 14:04:30 [DEBUG] [FFMPEG] 
      vendor_id       : [0][0][0][0]
2023/12/29 14:04:30 [DEBUG] [FFMPEG] 
      encoder         : Lavc60.31.102 mjpeg
2023/12/29 14:04:30 [DEBUG] [FFMPEG] 
    Side data:
2023/12/29 14:04:30 [DEBUG] [FFMPEG] 
      cpb: bitrate max/min/avg: 0/0/200000 buffer size: 0 vbv_delay: N/A
2023/12/29 14:04:30 [DEBUG] [FFMPEG] 
frame=    0 fps=0.0 q=1.6 size=       0kB time=00:00:00.00 bitrate=N/A speed=   0x    
2023/12/29 14:04:31 [DEBUG] [FFMPEG] [out#0/image2 @ 00000229a04f2100] video:18kB audio:0kB subtitle:0kB other streams:0kB global headers:0kB muxing overhead: unknown
2023/12/29 14:04:31 [DEBUG] [FFMPEG] 
frame=    3 fps=0.0 q=1.6 Lsize=N/A time=00:00:06.00 bitrate=N/A speed=  59x    
2023/12/29 14:04:31 [DEBUG] [FFMPEG] 

2023/12/29 14:04:31 [TASK #1] [DEBUG] Task ended!
2023/12/29 14:04:31 [REQUEST] (From: 127.0.0.1) POST /api/media/0/edit/thumbnail (146.929ms)
2023/12/29 14:04:31 [REQUEST] (From: 127.0.0.1) GET /assets/b/0/4/thumbnail.jpg (535.4µs)
2023/12/29 14:04:31 [REQUEST] (From: 127.0.0.1) GET /api/media/0 (514.9µs)
2023/12/29 14:04:31 [DEBUG] [FFPROBE] Probing temp/pmv_tmp_1703855070589_32.srt
2023/12/29 14:04:31 [REQUEST] (From: 127.0.0.1) POST /api/media/0/subtitles/set (31.8554ms)
2023/12/29 14:04:31 [REQUEST] (From: 127.0.0.1) GET /assets/b/0/5/subrip.srt (517.8µs)
2023/12/29 14:04:31 [REQUEST] (From: 127.0.0.1) GET /api/media/0 (0s)
2023/12/29 14:04:31 [REQUEST] (From: 127.0.0.1) POST /api/media/0/subtitles/remove (1.0338ms)
2023/12/29 14:04:31 [REQUEST] (From: 127.0.0.1) GET /api/media/0 (1.035ms)
2023/12/29 14:04:31 [DEBUG] [FFPROBE] Probing temp/pmv_tmp_1703855070589_36.mp3
2023/12/29 14:04:31 [REQUEST] (From: 127.0.0.1) POST /api/media/0/audios/set (45.4301ms)
2023/12/29 14:04:31 [REQUEST] (From: 127.0.0.1) GET /assets/b/0/6/audio.mp3 (2.6363ms)
2023/12/29 14:04:31 [REQUEST] (From: 127.0.0.1) GET /api/media/0 (1.0484ms)
2023/12/29 14:04:31 [REQUEST] (From: 127.0.0.1) POST /api/media/0/audios/remove (1.1034ms)
2023/12/29 14:04:31 [REQUEST] (From: 127.0.0.1) GET /api/media/0 (546.8µs)
2023/12/29 14:04:31 [REQUEST] (From: 127.0.0.1) POST /api/media/0/attachments/add (3.2207ms)
2023/12/29 14:04:31 [REQUEST] (From: 127.0.0.1) GET /assets/b/0/7/test-attachment.txt (0s)
2023/12/29 14:04:31 [REQUEST] (From: 127.0.0.1) GET /api/media/0 (1.0841ms)
2023/12/29 14:04:31 [REQUEST] (From: 127.0.0.1) POST /api/media/0/attachments/rename (1.0896ms)
2023/12/29 14:04:31 [REQUEST] (From: 127.0.0.1) GET /api/media/0 (519.8µs)
2023/12/29 14:04:31 [REQUEST] (From: 127.0.0.1) POST /api/media/0/attachments/remove (1.0054ms)
2023/12/29 14:04:31 [REQUEST] (From: 127.0.0.1) GET /api/media/0 (0s)
2023/12/29 14:04:31 [REQUEST] (From: 127.0.0.1) POST /api/media/0/resolution/add (2.0018ms)
2023/12/29 14:04:31 [REQUEST] (From: 127.0.0.1) GET /api/media/0 (1.0005ms)
2023/12/29 14:04:31 [REQUEST] (From: 127.0.0.1) GET /api/tasks/2 (0s)
2023/12/29 14:04:31 [DEBUG] [FFPROBE] Probing temp/pmv_tmp_1703855070589_47/original
2023/12/29 14:04:31 [DEBUG] Running command: C:\\ffmpeg\bin\ffmpeg.exe -y -progress pipe:1 -f mov,mp4,m4a,3gp,3g2,mj2 -i temp/pmv_tmp_1703855070589_47/original -vf fps=30,scale=256:144 -t 10.007 -max_muxing_queue_size 9999 -vcodec libx264 -acodec aac -pix_fmt yuv420p temp/pmv_tmp_1703855070589_47/video.mp4
2023/12/29 14:04:31 [DEBUG] [FFMPEG] ffmpeg version 6.1-full_build-www.gyan.dev Copyright (c) 2000-2023 the FFmpeg developers
2023/12/29 14:04:31 [DEBUG] [FFMPEG] 
  built with gcc 12.2.0 (Rev10, Built by MSYS2 project)
2023/12/29 14:04:31 [DEBUG] [FFMPEG] 
  configuration: --enable-gpl --enable-version3 --enable-static --pkg-config=pkgconf --disable-w32threads --disable-autodetect --enable-fontconfig --enable-iconv --enable-gnutls --enable-libxml2 --enable-gmp --enable-bzlib --enable-lzma --enable-libsnappy --enable-zlib --enable-librist --enable-libsrt --enable-libssh --enable-libzmq --enable-avisynth --enable-libbluray --enable-libcaca --enable-sdl2 --enable-libaribb24 --enable-libaribcaption --enable-libdav1d --enable-libdavs2 --enable-libuavs3d --enable-libzvbi --enable-librav1e --enable-libsvtav1 --enable-libwebp --enable-libx264 --enable-libx265 --enable-libxavs2 --enable-libxvid --enable-libaom --enable-libjxl --enable-libopenjpeg --enable-libvpx --enable-mediafoundation --enable-libass --enable-frei0r --enable-libfreetype --enable-libfribidi --enable-libharfbuzz --enable-liblensfun --enable-libvidstab --enable-libvmaf --enable-libzimg --enable-amf --enable-cuda-llvm --enable-cuvid --enable-ffnvcodec --enable-nvdec --enable-nvenc --enable-dxva2 --enable-d3d11va --enable-libvpl --enable-libshaderc --enable-vulkan --enable-libplacebo --enable-opencl --enable-libcdio --enable-libgme --enable-libmodplug --enable-libopenmpt --enable-libopencore-amrwb --enable-libmp3lame --enable-libshine --enable-libtheora --enable-libtwolame --enable-libvo-amrwbenc --enable-libcodec2 --enable-libilbc --enable-libgsm --enable-libopencore-amrnb --enable-libopus --enable-libspeex --enable-libvorbis --enable-ladspa --enable-libbs2b --enable-libflite --enable-libmysofa --enable-librubberband --enable-libsoxr --enable-chromaprint
2023/12/29 14:04:31 [DEBUG] [FFMPEG] 
  libavutil      58. 29.100 / 58. 29.100
2023/12/29 14:04:31 [DEBUG] [FFMPEG] 
  libavcodec     60. 31.102 / 60. 31.102
2023/12/29 14:04:31 [DEBUG] [FFMPEG] 
  libavformat    60. 16.100 / 60. 16.100
2023/12/29 14:04:31 [DEBUG] [FFMPEG] 
  libavdevice    60.  3.100 / 60.  3.100
2023/12/29 14:04:31 [DEBUG] [FFMPEG] 
  libavfilter     9. 12.100 /  9. 12.100
2023/12/29 14:04:31 [DEBUG] [FFMPEG] 
  libswscale      7.  5.100 /  7.  5.100
2023/12/29 14:04:31 [DEBUG] [FFMPEG] 
  libswresample   4. 12.100 /  4. 12.100
2023/12/29 14:04:31 [DEBUG] [FFMPEG] 
  libpostproc    57.  3.100 / 57.  3.100
2023/12/29 14:04:31 [DEBUG] [FFMPEG] 
Input #0, mov,mp4,m4a,3gp,3g2,mj2, from 'temp/pmv_tmp_1703855070589_47/original':
2023/12/29 14:04:31 [DEBUG] [FFMPEG] 
  Metadata:
2023/12/29 14:04:31 [DEBUG] [FFMPEG] 
    major_brand     : isom
2023/12/29 14:04:31 [DEBUG] [FFMPEG] 
    minor_version   : 512
2023/12/29 14:04:31 [DEBUG] [FFMPEG] 
    compatible_brands: isomiso2avc1mp41
2023/12/29 14:04:31 [DEBUG] [FFMPEG] 
    encoder         : Lavf59.27.100
2023/12/29 14:04:31 [DEBUG] [FFMPEG] 
  Duration: 00:00:10.01, start: 0.000000, bitrate: 1246 kb/s
2023/12/29 14:04:31 [DEBUG] [FFMPEG] 
  Stream #0:0[0x1](und): Video: h264 (High) (avc1 / 0x31637661), yuv420p(progressive), 1280x720 [SAR 1:1 DAR 16:9], 1111 kb/s, 24 fps, 24 tbr, 12288 tbn (default)
2023/12/29 14:04:31 [DEBUG] [FFMPEG] 
    Metadata:
2023/12/29 14:04:31 [DEBUG] [FFMPEG] 
      handler_name    : (C) 2007 Google Inc. v08.13.2007.
2023/12/29 14:04:31 [DEBUG] [FFMPEG] 
      vendor_id       : [0][0][0][0]
2023/12/29 14:04:31 [DEBUG] [FFMPEG] 
      encoder         : Lavc59.37.100 libx264
2023/12/29 14:04:31 [DEBUG] [FFMPEG] 
  Stream #0:1[0x2](und): Audio: aac (LC) (mp4a / 0x6134706D), 48000 Hz, stereo, fltp, 128 kb/s (default)
2023/12/29 14:04:31 [DEBUG] [FFMPEG] 
    Metadata:
2023/12/29 14:04:31 [DEBUG] [FFMPEG] 
      handler_name    : (C) 2007 Google Inc. v08.13.2007.
2023/12/29 14:04:31 [DEBUG] [FFMPEG] 
      vendor_id       : [0][0][0][0]
2023/12/29 14:04:31 [DEBUG] [FFMPEG] 
Stream mapping:
2023/12/29 14:04:31 [DEBUG] [FFMPEG] 
  Stream #0:0 -> #0:0 (h264 (native) -> h264 (libx264))
2023/12/29 14:04:31 [DEBUG] [FFMPEG] 
  Stream #0:1 -> #0:1 (aac (native) -> aac (native))
2023/12/29 14:04:31 [DEBUG] [FFMPEG] 
Press [q] to stop, [?] for help
2023/12/29 14:04:31 [DEBUG] [FFMPEG] 
[libx264 @ 0000011fdbc50380] using SAR=1/1
2023/12/29 14:04:31 [DEBUG] [FFMPEG] 
[libx264 @ 0000011fdbc50380] using cpu capabilities: MMX2 SSE2Fast SSSE3 SSE4.2 AVX FMA3 BMI2 AVX2
2023/12/29 14:04:31 [DEBUG] [FFMPEG] 
[libx264 @ 0000011fdbc50380] profile High, level 1.2, 4:2:0, 8-bit
2023/12/29 14:04:31 [DEBUG] [FFMPEG] 
[libx264 @ 0000011fdbc50380] 264 - core 164 r3161 a354f11 - H.264/MPEG-4 AVC codec - Copyleft 2003-2023 - http://www.videolan.org/x264.html - options: cabac=1 ref=3 deblock=1:0:0 analyse=0x3:0x113 me=hex subme=7 psy=1 psy_rd=1.00:0.00 mixed_ref=1 me_range=16 chroma_me=1 trellis=1 8x8dct=1 cqm=0 deadzone=21,11 fast_pskip=1 chroma_qp_offset=-2 threads=4 lookahead_threads=1 sliced_threads=0 nr=0 decimate=1 interlaced=0 bluray_compat=0 constrained_intra=0 bframes=3 b_pyramid=2 b_adapt=1 b_bias=0 direct=1 weightb=1 open_gop=0 weightp=2 keyint=250 keyint_min=25 scenecut=40 intra_refresh=0 rc_lookahead=40 rc=crf mbtree=1 crf=23.0 qcomp=0.60 qpmin=0 qpmax=69 qpstep=4 ip_ratio=1.40 aq=1:1.00
2023/12/29 14:04:31 [DEBUG] [FFMPEG] 
Output #0, mp4, to 'temp/pmv_tmp_1703855070589_47/video.mp4':
2023/12/29 14:04:31 [DEBUG] [FFMPEG] 
  Metadata:
2023/12/29 14:04:31 [DEBUG] [FFMPEG] 
    major_brand     : isom
2023/12/29 14:04:31 [DEBUG] [FFMPEG] 
    minor_version   : 512
2023/12/29 14:04:31 [DEBUG] [FFMPEG] 
    compatible_brands: isomiso2avc1mp41
2023/12/29 14:04:31 [DEBUG] [FFMPEG] 
    encoder         : Lavf60.16.100
2023/12/29 14:04:31 [DEBUG] [FFMPEG] 
  Stream #0:0(und): Video: h264 (avc1 / 0x31637661), yuv420p(tv, progressive), 256x144 [SAR 1:1 DAR 16:9], q=2-31, 30 fps, 15360 tbn (default)
2023/12/29 14:04:31 [DEBUG] [FFMPEG] 
    Metadata:
2023/12/29 14:04:31 [DEBUG] [FFMPEG] 
      handler_name    : (C) 2007 Google Inc. v08.13.2007.
2023/12/29 14:04:31 [DEBUG] [FFMPEG] 
      vendor_id       : [0][0][0][0]
2023/12/29 14:04:31 [DEBUG] [FFMPEG] 
      encoder         : Lavc60.31.102 libx264
2023/12/29 14:04:31 [DEBUG] [FFMPEG] 
    Side data:
2023/12/29 14:04:31 [DEBUG] [FFMPEG] 
      cpb: bitrate max/min/avg: 0/0/0 buffer size: 0 vbv_delay: N/A
2023/12/29 14:04:31 [DEBUG] [FFMPEG] 
  Stream #0:1(und): Audio: aac (LC) (mp4a / 0x6134706D), 48000 Hz, stereo, fltp, 128 kb/s (default)
2023/12/29 14:04:31 [DEBUG] [FFMPEG] 
    Metadata:
2023/12/29 14:04:31 [DEBUG] [FFMPEG] 
      handler_name    : (C) 2007 Google Inc. v08.13.2007.
2023/12/29 14:04:31 [DEBUG] [FFMPEG] 
      vendor_id       : [0][0][0][0]
2023/12/29 14:04:31 [DEBUG] [FFMPEG] 
      encoder         : Lavc60.31.102 aac
2023/12/29 14:04:31 [DEBUG] [FFMPEG] 
frame=    0 fps=0.0 q=0.0 size=       0kB time=00:00:00.32 bitrate=   1.2kbits/s speed=11.7x    
2023/12/29 14:04:31 [REQUEST] (From: 127.0.0.1) GET /api/media/0 (920µs)
2023/12/29 14:04:31 [REQUEST] (From: 127.0.0.1) GET /api/tasks/2 (1.0981ms)
2023/12/29 14:04:31 [REQUEST] (From: 127.0.0.1) GET /api/media/0 (0s)
2023/12/29 14:04:31 [REQUEST] (From: 127.0.0.1) GET /api/tasks/2 (999.8µs)
2023/12/29 14:04:31 [REQUEST] (From: 127.0.0.1) GET /api/media/0 (601.4µs)
2023/12/29 14:04:31 [REQUEST] (From: 127.0.0.1) GET /api/tasks/2 (0s)
2023/12/29 14:04:31 [REQUEST] (From: 127.0.0.1) GET /api/media/0 (529.4µs)
2023/12/29 14:04:31 [REQUEST] (From: 127.0.0.1) GET /api/tasks/2 (0s)
2023/12/29 14:04:31 [DEBUG] [FFMPEG] [out#0/mp4 @ 0000011fdb5f9880] video:97kB audio:158kB subtitle:0kB other streams:0kB global headers:0kB muxing overhead: 4.729976%
2023/12/29 14:04:31 [DEBUG] [FFMPEG] 
frame=  300 fps=0.0 q=-1.0 Lsize=     267kB time=00:00:10.00 bitrate= 218.3kbits/s speed=27.4x    
2023/12/29 14:04:31 [DEBUG] [FFMPEG] 
[libx264 @ 0000011fdbc50380] frame I:5     Avg QP:14.83  size:  1950
2023/12/29 14:04:31 [DEBUG] [FFMPEG] 
[libx264 @ 0000011fdbc50380] frame P:98    Avg QP:21.12  size:   779
2023/12/29 14:04:31 [DEBUG] [FFMPEG] 
[libx264 @ 0000011fdbc50380] frame B:197   Avg QP:22.42  size:    62
2023/12/29 14:04:31 [DEBUG] [FFMPEG] 
[libx264 @ 0000011fdbc50380] consecutive B-frames:  3.7% 21.3% 15.0% 60.0%
2023/12/29 14:04:31 [DEBUG] [FFMPEG] 
[libx264 @ 0000011fdbc50380] mb I  I16..4: 50.6% 39.2% 10.3%
2023/12/29 14:04:31 [DEBUG] [FFMPEG] 
[libx264 @ 0000011fdbc50380] mb P  I16..4:  2.9%  5.5%  0.1%  P16..4: 47.1% 11.6%  5.8%  0.0%  0.0%    skip:27.0%
2023/12/29 14:04:31 [DEBUG] [FFMPEG] 
[libx264 @ 0000011fdbc50380] mb B  I16..4:  0.4%  0.4%  0.0%  B16..8: 27.2%  0.5%  0.0%  direct: 0.4%  skip:71.1%  L0:39.7% L1:57.7% BI: 2.6%
2023/12/29 14:04:31 [DEBUG] [FFMPEG] 
[libx264 @ 0000011fdbc50380] 8x8 transform intra:54.5% inter:64.8%
2023/12/29 14:04:31 [DEBUG] [FFMPEG] 
[libx264 @ 0000011fdbc50380] coded y,uvDC,uvAC intra: 14.4% 28.5% 8.8% inter: 7.3% 12.6% 3.4%
2023/12/29 14:04:31 [DEBUG] [FFMPEG] 
[libx264 @ 0000011fdbc50380] i16 v,h,dc,p: 56% 21% 17%  6%
2023/12/29 14:04:31 [DEBUG] [FFMPEG] 
[libx264 @ 0000011fdbc50380] i8 v,h,dc,ddl,ddr,vr,hd,vl,hu: 22% 18% 49%  1%  2%  2%  3%  1%  1%
2023/12/29 14:04:31 [DEBUG] [FFMPEG] 
[libx264 @ 0000011fdbc50380] i4 v,h,dc,ddl,ddr,vr,hd,vl,hu: 17% 22% 19%  7%  6%  5%  8%  7%  9%
2023/12/29 14:04:31 [DEBUG] [FFMPEG] 
[libx264 @ 0000011fdbc50380] i8c dc,h,v,p: 78% 14%  6%  2%
2023/12/29 14:04:31 [DEBUG] [FFMPEG] 
[libx264 @ 0000011fdbc50380] Weighted P-Frames: Y:24.5% UV:16.3%
2023/12/29 14:04:31 [DEBUG] [FFMPEG] 
[libx264 @ 0000011fdbc50380] ref P L0: 69.9%  6.1% 14.6%  9.4%
2023/12/29 14:04:31 [DEBUG] [FFMPEG] 
[libx264 @ 0000011fdbc50380] ref B L0: 78.5% 17.0%  4.5%
2023/12/29 14:04:31 [DEBUG] [FFMPEG] 
[libx264 @ 0000011fdbc50380] ref B L1: 98.0%  2.0%
2023/12/29 14:04:31 [DEBUG] [FFMPEG] 
[libx264 @ 0000011fdbc50380] kb/s:78.60
2023/12/29 14:04:31 [DEBUG] [FFMPEG] 
[aac @ 0000011fdbfb73c0] Qavg: 1623.732
2023/12/29 14:04:31 [DEBUG] [FFMPEG] 

2023/12/29 14:04:31 [TASK #2] [DEBUG] Task ended!
2023/12/29 14:04:31 [REQUEST] (From: 127.0.0.1) GET /api/media/0 (1.1868ms)
2023/12/29 14:04:31 [REQUEST] (From: 127.0.0.1) GET /assets/b/0/8/video.mp4 (2.7845ms)
2023/12/29 14:04:31 [REQUEST] (From: 127.0.0.1) POST /api/media/0/resolution/remove (1.9643ms)
2023/12/29 14:04:31 [REQUEST] (From: 127.0.0.1) GET /api/media/0 (1.0002ms)
2023/12/29 14:04:31 [ERROR] multipart: NextPart: EOF
2023/12/29 14:04:31 [REQUEST] (From: 127.0.0.1) POST /api/media/0/replace (0s)
2023/12/29 14:04:31 [REQUEST] (From: 127.0.0.1) GET /api/media/0 (999.6µs)
2023/12/29 14:04:31 [REQUEST] (From: 127.0.0.1) POST /api/media/0/encode (2.0004ms)
2023/12/29 14:04:31 [REQUEST] (From: 127.0.0.1) GET /api/media/0 (1.003ms)
2023/12/29 14:04:31 [REQUEST] (From: 127.0.0.1) GET /api/tasks/3 (0s)
2023/12/29 14:04:31 [DEBUG] [FFPROBE] Probing temp/pmv_tmp_1703855070589_55/original
2023/12/29 14:04:31 [DEBUG] Running command: C:\\ffmpeg\bin\ffmpeg.exe -y -progress pipe:1 -f mov,mp4,m4a,3gp,3g2,mj2 -i temp/pmv_tmp_1703855070589_55/original -t 10.007 -pix_fmt yuv420p -max_muxing_queue_size 9999 -vcodec libx264 -acodec aac temp/pmv_tmp_1703855070589_55/video.mp4
2023/12/29 14:04:31 [DEBUG] [FFMPEG] ffmpeg version 6.1-full_build-www.gyan.dev Copyright (c) 2000-2023 the FFmpeg developers
2023/12/29 14:04:31 [DEBUG] [FFMPEG] 
  built with gcc 12.2.0 (Rev10, Built by MSYS2 project)
2023/12/29 14:04:31 [DEBUG] [FFMPEG] 
  configuration: --enable-gpl --enable-version3 --enable-static --pkg-config=pkgconf --disable-w32threads --disable-autodetect --enable-fontconfig --enable-iconv --enable-gnutls --enable-libxml2 --enable-gmp --enable-bzlib --enable-lzma --enable-libsnappy --enable-zlib --enable-librist --enable-libsrt --enable-libssh --enable-libzmq --enable-avisynth --enable-libbluray --enable-libcaca --enable-sdl2 --enable-libaribb24 --enable-libaribcaption --enable-libdav1d --enable-libdavs2 --enable-libuavs3d --enable-libzvbi --enable-librav1e --enable-libsvtav1 --enable-libwebp --enable-libx264 --enable-libx265 --enable-libxavs2 --enable-libxvid --enable-libaom --enable-libjxl --enable-libopenjpeg --enable-libvpx --enable-mediafoundation --enable-libass --enable-frei0r --enable-libfreetype --enable-libfribidi --enable-libharfbuzz --enable-liblensfun --enable-libvidstab --enable-libvmaf --enable-libzimg --enable-amf --enable-cuda-llvm --enable-cuvid --enable-ffnvcodec --enable-nvdec --enable-nvenc --enable-dxva2 --enable-d3d11va --enable-libvpl --enable-libshaderc --enable-vulkan --enable-libplacebo --enable-opencl --enable-libcdio --enable-libgme --enable-libmodplug --enable-libopenmpt --enable-libopencore-amrwb --enable-libmp3lame --enable-libshine --enable-libtheora --enable-libtwolame --enable-libvo-amrwbenc --enable-libcodec2 --enable-libilbc --enable-libgsm --enable-libopencore-amrnb --enable-libopus --enable-libspeex --enable-libvorbis --enable-ladspa --enable-libbs2b --enable-libflite --enable-libmysofa --enable-librubberband --enable-libsoxr --enable-chromaprint
2023/12/29 14:04:31 [DEBUG] [FFMPEG] 
  libavutil      58. 29.100 / 58. 29.100
2023/12/29 14:04:31 [DEBUG] [FFMPEG] 
  libavcodec     60. 31.102 / 60. 31.102
2023/12/29 14:04:31 [DEBUG] [FFMPEG] 
  libavformat    60. 16.100 / 60. 16.100
2023/12/29 14:04:31 [DEBUG] [FFMPEG] 
  libavdevice    60.  3.100 / 60.  3.100
2023/12/29 14:04:31 [DEBUG] [FFMPEG] 
  libavfilter     9. 12.100 /  9. 12.100
2023/12/29 14:04:31 [DEBUG] [FFMPEG] 
  libswscale      7.  5.100 /  7.  5.100
2023/12/29 14:04:31 [DEBUG] [FFMPEG] 
  libswresample   4. 12.100 /  4. 12.100
2023/12/29 14:04:31 [DEBUG] [FFMPEG] 
  libpostproc    57.  3.100 / 57.  3.100
2023/12/29 14:04:31 [DEBUG] [FFMPEG] 
Input #0, mov,mp4,m4a,3gp,3g2,mj2, from 'temp/pmv_tmp_1703855070589_55/original':
2023/12/29 14:04:31 [DEBUG] [FFMPEG] 
  Metadata:
2023/12/29 14:04:31 [DEBUG] [FFMPEG] 
    major_brand     : isom
2023/12/29 14:04:31 [DEBUG] [FFMPEG] 
    minor_version   : 512
2023/12/29 14:04:31 [DEBUG] [FFMPEG] 
    compatible_brands: isomiso2avc1mp41
2023/12/29 14:04:31 [DEBUG] [FFMPEG] 
    encoder         : Lavf59.27.100
2023/12/29 14:04:31 [DEBUG] [FFMPEG] 
  Duration: 00:00:10.01, start: 0.000000, bitrate: 1246 kb/s
2023/12/29 14:04:31 [DEBUG] [FFMPEG] 
  Stream #0:0[0x1](und): Video: h264 (High) (avc1 / 0x31637661), yuv420p(progressive), 1280x720 [SAR 1:1 DAR 16:9], 1111 kb/s, 24 fps, 24 tbr, 12288 tbn (default)
2023/12/29 14:04:31 [DEBUG] [FFMPEG] 
    Metadata:
2023/12/29 14:04:31 [DEBUG] [FFMPEG] 
      handler_name    : (C) 2007 Google Inc. v08.13.2007.
2023/12/29 14:04:31 [DEBUG] [FFMPEG] 
      vendor_id       : [0][0][0][0]
2023/12/29 14:04:31 [DEBUG] [FFMPEG] 
      encoder         : Lavc59.37.100 libx264
2023/12/29 14:04:31 [DEBUG] [FFMPEG] 
  Stream #0:1[0x2](und): Audio: aac (LC) (mp4a / 0x6134706D), 48000 Hz, stereo, fltp, 128 kb/s (default)
2023/12/29 14:04:31 [DEBUG] [FFMPEG] 
    Metadata:
2023/12/29 14:04:31 [DEBUG] [FFMPEG] 
      handler_name    : (C) 2007 Google Inc. v08.13.2007.
2023/12/29 14:04:31 [DEBUG] [FFMPEG] 
      vendor_id       : [0][0][0][0]
2023/12/29 14:04:31 [DEBUG] [FFMPEG] 
Stream mapping:
2023/12/29 14:04:31 [DEBUG] [FFMPEG] 
  Stream #0:0 -> #0:0 (h264 (native) -> h264 (libx264))
2023/12/29 14:04:31 [DEBUG] [FFMPEG] 
  Stream #0:1 -> #0:1 (aac (native) -> aac (native))
2023/12/29 14:04:31 [DEBUG] [FFMPEG] 
Press [q] to stop, [?] for help
2023/12/29 14:04:31 [DEBUG] [FFMPEG] 
[libx264 @ 00000143291fb800] using SAR=1/1
2023/12/29 14:04:31 [DEBUG] [FFMPEG] 
[libx264 @ 00000143291fb800] using cpu capabilities: MMX2 SSE2Fast SSSE3 SSE4.2 AVX FMA3 BMI2 AVX2
2023/12/29 14:04:31 [DEBUG] [FFMPEG] 
[libx264 @ 00000143291fb800] profile High, level 3.1, 4:2:0, 8-bit
2023/12/29 14:04:31 [DEBUG] [FFMPEG] 
[libx264 @ 00000143291fb800] 264 - core 164 r3161 a354f11 - H.264/MPEG-4 AVC codec - Copyleft 2003-2023 - http://www.videolan.org/x264.html - options: cabac=1 ref=3 deblock=1:0:0 analyse=0x3:0x113 me=hex subme=7 psy=1 psy_rd=1.00:0.00 mixed_ref=1 me_range=16 chroma_me=1 trellis=1 8x8dct=1 cqm=0 deadzone=21,11 fast_pskip=1 chroma_qp_offset=-2 threads=12 lookahead_threads=2 sliced_threads=0 nr=0 decimate=1 interlaced=0 bluray_compat=0 constrained_intra=0 bframes=3 b_pyramid=2 b_adapt=1 b_bias=0 direct=1 weightb=1 open_gop=0 weightp=2 keyint=250 keyint_min=24 scenecut=40 intra_refresh=0 rc_lookahead=40 rc=crf mbtree=1 crf=23.0 qcomp=0.60 qpmin=0 qpmax=69 qpstep=4 ip_ratio=1.40 aq=1:1.00
2023/12/29 14:04:31 [DEBUG] [FFMPEG] 
Output #0, mp4, to 'temp/pmv_tmp_1703855070589_55/video.mp4':
2023/12/29 14:04:31 [DEBUG] [FFMPEG] 
  Metadata:
2023/12/29 14:04:31 [DEBUG] [FFMPEG] 
    major_brand     : isom
2023/12/29 14:04:31 [DEBUG] [FFMPEG] 
    minor_version   : 512
2023/12/29 14:04:31 [DEBUG] [FFMPEG] 
    compatible_brands: isomiso2avc1mp41
2023/12/29 14:04:31 [DEBUG] [FFMPEG] 
    encoder         : Lavf60.16.100
2023/12/29 14:04:31 [DEBUG] [FFMPEG] 
  Stream #0:0(und): Video: h264 (avc1 / 0x31637661), yuv420p(progressive), 1280x720 [SAR 1:1 DAR 16:9], q=2-31, 24 fps, 12288 tbn (default)
2023/12/29 14:04:31 [DEBUG] [FFMPEG] 
    Metadata:
2023/12/29 14:04:31 [DEBUG] [FFMPEG] 
      handler_name    : (C) 2007 Google Inc. v08.13.2007.
2023/12/29 14:04:31 [DEBUG] [FFMPEG] 
      vendor_id       : [0][0][0][0]
2023/12/29 14:04:31 [DEBUG] [FFMPEG] 
      encoder         : Lavc60.31.102 libx264
2023/12/29 14:04:31 [DEBUG] [FFMPEG] 
    Side data:
2023/12/29 14:04:31 [DEBUG] [FFMPEG] 
      cpb: bitrate max/min/avg: 0/0/0 buffer size: 0 vbv_delay: N/A
2023/12/29 14:04:31 [DEBUG] [FFMPEG] 
  Stream #0:1(und): Audio: aac (LC) (mp4a / 0x6134706D), 48000 Hz, stereo, fltp, 128 kb/s (default)
2023/12/29 14:04:31 [DEBUG] [FFMPEG] 
    Metadata:
2023/12/29 14:04:31 [DEBUG] [FFMPEG] 
      handler_name    : (C) 2007 Google Inc. v08.13.2007.
2023/12/29 14:04:31 [DEBUG] [FFMPEG] 
      vendor_id       : [0][0][0][0]
2023/12/29 14:04:31 [DEBUG] [FFMPEG] 
      encoder         : Lavc60.31.102 aac
2023/12/29 14:04:31 [DEBUG] [FFMPEG] 
frame=    0 fps=0.0 q=0.0 size=       0kB time=00:00:00.27 bitrate=   1.4kbits/s speed=13.9x    
2023/12/29 14:04:31 [REQUEST] (From: 127.0.0.1) GET /api/media/0 (541.5µs)
2023/12/29 14:04:31 [REQUEST] (From: 127.0.0.1) GET /api/tasks/3 (0s)
2023/12/29 14:04:31 [REQUEST] (From: 127.0.0.1) GET /api/media/0 (1.0163ms)
2023/12/29 14:04:31 [REQUEST] (From: 127.0.0.1) GET /api/tasks/3 (0s)
2023/12/29 14:04:32 [REQUEST] (From: 127.0.0.1) GET /api/media/0 (513.9µs)
2023/12/29 14:04:32 [REQUEST] (From: 127.0.0.1) GET /api/tasks/3 (1.098ms)
2023/12/29 14:04:32 [REQUEST] (From: 127.0.0.1) GET /api/media/0 (518.1µs)
2023/12/29 14:04:32 [REQUEST] (From: 127.0.0.1) GET /api/tasks/3 (0s)
2023/12/29 14:04:32 [REQUEST] (From: 127.0.0.1) GET /api/media/0 (5.9262ms)
2023/12/29 14:04:32 [REQUEST] (From: 127.0.0.1) GET /api/tasks/3 (0s)
2023/12/29 14:04:32 [DEBUG] [FFMPEG] frame=   43 fps=0.0 q=28.0 size=       0kB time=00:00:04.37 bitrate=   0.1kbits/s speed=8.26x    
2023/12/29 14:04:32 [REQUEST] (From: 127.0.0.1) GET /api/media/0 (3.8354ms)
2023/12/29 14:04:32 [REQUEST] (From: 127.0.0.1) GET /api/tasks/3 (8.9995ms)
2023/12/29 14:04:32 [REQUEST] (From: 127.0.0.1) GET /api/media/0 (1.0014ms)
2023/12/29 14:04:32 [REQUEST] (From: 127.0.0.1) GET /api/tasks/3 (0s)
2023/12/29 14:04:32 [REQUEST] (From: 127.0.0.1) GET /api/media/0 (3.7223ms)
2023/12/29 14:04:32 [REQUEST] (From: 127.0.0.1) GET /api/tasks/3 (4.0011ms)
2023/12/29 14:04:32 [DEBUG] [FFMPEG] frame=  144 fps=140 q=28.0 size=     512kB time=00:00:08.59 bitrate= 487.9kbits/s speed=8.33x    
2023/12/29 14:04:32 [REQUEST] (From: 127.0.0.1) GET /api/media/0 (0s)
2023/12/29 14:04:32 [REQUEST] (From: 127.0.0.1) GET /api/tasks/3 (21.1835ms)
2023/12/29 14:04:32 [REQUEST] (From: 127.0.0.1) GET /api/media/0 (0s)
2023/12/29 14:04:32 [REQUEST] (From: 127.0.0.1) GET /api/tasks/3 (0s)
2023/12/29 14:04:33 [REQUEST] (From: 127.0.0.1) GET /api/media/0 (999.3µs)
2023/12/29 14:04:33 [REQUEST] (From: 127.0.0.1) GET /api/tasks/3 (0s)
2023/12/29 14:04:33 [REQUEST] (From: 127.0.0.1) GET /api/media/0 (1.0003ms)
2023/12/29 14:04:33 [REQUEST] (From: 127.0.0.1) GET /api/tasks/3 (2.0004ms)
2023/12/29 14:04:33 [DEBUG] [FFMPEG] [out#0/mp4 @ 0000014328d71440] video:1279kB audio:158kB subtitle:0kB other streams:0kB global headers:0kB muxing overhead: 0.568581%
2023/12/29 14:04:33 [DEBUG] [FFMPEG] 
frame=  240 fps=161 q=-1.0 Lsize=    1445kB time=00:00:10.00 bitrate=1183.4kbits/s speed= 6.7x    
2023/12/29 14:04:33 [DEBUG] [FFMPEG] 
[libx264 @ 00000143291fb800] frame I:2     Avg QP: 8.99  size:   352
2023/12/29 14:04:33 [DEBUG] [FFMPEG] 
[libx264 @ 00000143291fb800] frame P:77    Avg QP:18.36  size: 13201
2023/12/29 14:04:33 [DEBUG] [FFMPEG] 
[libx264 @ 00000143291fb800] frame B:161   Avg QP:21.05  size:  1814
2023/12/29 14:04:33 [DEBUG] [FFMPEG] 
[libx264 @ 00000143291fb800] consecutive B-frames:  3.8% 15.8% 13.8% 66.7%
2023/12/29 14:04:33 [DEBUG] [FFMPEG] 
[libx264 @ 00000143291fb800] mb I  I16..4: 100.0%  0.0%  0.0%
2023/12/29 14:04:33 [DEBUG] [FFMPEG] 
[libx264 @ 00000143291fb800] mb P  I16..4:  7.2% 19.9%  0.3%  P16..4: 26.4%  7.3%  4.9%  0.0%  0.0%    skip:34.1%
2023/12/29 14:04:33 [DEBUG] [FFMPEG] 
[libx264 @ 00000143291fb800] mb B  I16..4:  2.3%  1.0%  0.0%  B16..8: 28.3%  1.1%  0.1%  direct: 2.7%  skip:64.5%  L0:45.8% L1:51.5% BI: 2.6%
2023/12/29 14:04:33 [DEBUG] [FFMPEG] 
[libx264 @ 00000143291fb800] 8x8 transform intra:59.7% inter:73.7%
2023/12/29 14:04:33 [DEBUG] [FFMPEG] 
[libx264 @ 00000143291fb800] coded y,uvDC,uvAC intra: 6.4% 15.2% 4.0% inter: 5.5% 11.1% 0.8%
2023/12/29 14:04:33 [DEBUG] [FFMPEG] 
[libx264 @ 00000143291fb800] i16 v,h,dc,p: 67% 22%  7%  4%
2023/12/29 14:04:33 [DEBUG] [FFMPEG] 
[libx264 @ 00000143291fb800] i8 v,h,dc,ddl,ddr,vr,hd,vl,hu: 37% 17% 43%  0%  1%  1%  1%  0%  1%
2023/12/29 14:04:33 [DEBUG] [FFMPEG] 
[libx264 @ 00000143291fb800] i4 v,h,dc,ddl,ddr,vr,hd,vl,hu: 33% 15% 19%  4%  6%  7%  5%  6%  5%
2023/12/29 14:04:33 [DEBUG] [FFMPEG] 
[libx264 @ 00000143291fb800] i8c dc,h,v,p: 73% 15% 11%  1%
2023/12/29 14:04:33 [DEBUG] [FFMPEG] 
[libx264 @ 00000143291fb800] Weighted P-Frames: Y:33.8% UV:16.9%
2023/12/29 14:04:33 [DEBUG] [FFMPEG] 
[libx264 @ 00000143291fb800] ref P L0: 77.3% 10.4% 10.0%  2.2%
2023/12/29 14:04:33 [DEBUG] [FFMPEG] 
[libx264 @ 00000143291fb800] ref B L0: 93.7%  5.7%  0.7%
2023/12/29 14:04:33 [DEBUG] [FFMPEG] 
[libx264 @ 00000143291fb800] ref B L1: 97.4%  2.6%
2023/12/29 14:04:33 [DEBUG] [FFMPEG] 
[libx264 @ 00000143291fb800] kb/s:1047.43
2023/12/29 14:04:33 [REQUEST] (From: 127.0.0.1) GET /api/media/0 (0s)
2023/12/29 14:04:33 [REQUEST] (From: 127.0.0.1) GET /api/tasks/3 (0s)
2023/12/29 14:04:33 [DEBUG] [FFMPEG] 
[aac @ 000001432945a000] Qavg: 1623.732
2023/12/29 14:04:33 [DEBUG] [FFMPEG] 

2023/12/29 14:04:33 [TASK #3] [DEBUG] Task ended!
2023/12/29 14:04:33 [DEBUG] [FFPROBE] Probing temp/pmv_tmp_1703855070589_59/original
2023/12/29 14:04:33 [REQUEST] (From: 127.0.0.1) GET /api/media/0 (0s)
2023/12/29 14:04:33 [DEBUG] Running command: C:\\ffmpeg\bin\ffmpeg.exe -y -progress pipe:1 -f mov,mp4,m4a,3gp,3g2,mj2 -i temp/pmv_tmp_1703855070589_59/original -vf fps=1/3,scale=256:144:force_original_aspect_ratio=decrease,pad=256:144:(ow-iw)/2:(oh-ih)/2 -t 10.007 temp/pmv_tmp_1703855070589_59/thumb_%d.jpg
2023/12/29 14:04:33 [REQUEST] (From: 127.0.0.1) GET /assets/b/0/9/original_0.mp4 (8.0012ms)
2023/12/29 14:04:33 [REQUEST] (From: 127.0.0.1) HEAD /assets/b/0/9/original_0.mp4 (0s)
2023/12/29 14:04:33 [REQUEST] (From: 127.0.0.1) GET /assets/b/0/9/original_0.mp4 (6.999ms)
2023/12/29 14:04:33 [REQUEST] (From: 127.0.0.1) GET /assets/b/0/9/original_0.mp4 (8.0026ms)
2023/12/29 14:04:33 [DEBUG] [FFMPEG] ffmpeg version 6.1-full_build-www.gyan.dev Copyright (c) 2000-2023 the FFmpeg developers
2023/12/29 14:04:33 [DEBUG] [FFMPEG] 
  built with gcc 12.2.0 (Rev10, Built by MSYS2 project)
2023/12/29 14:04:33 [DEBUG] [FFMPEG] 
  configuration: --enable-gpl --enable-version3 --enable-static --pkg-config=pkgconf --disable-w32threads --disable-autodetect --enable-fontconfig --enable-iconv --enable-gnutls --enable-libxml2 --enable-gmp --enable-bzlib --enable-lzma --enable-libsnappy --enable-zlib --enable-librist --enable-libsrt --enable-libssh --enable-libzmq --enable-avisynth --enable-libbluray --enable-libcaca --enable-sdl2 --enable-libaribb24 --enable-libaribcaption --enable-libdav1d --enable-libdavs2 --enable-libuavs3d --enable-libzvbi --enable-librav1e --enable-libsvtav1 --enable-libwebp --enable-libx264 --enable-libx265 --enable-libxavs2 --enable-libxvid --enable-libaom --enable-libjxl --enable-libopenjpeg --enable-libvpx --enable-mediafoundation --enable-libass --enable-frei0r --enable-libfreetype --enable-libfribidi --enable-libharfbuzz --enable-liblensfun --enable-libvidstab --enable-libvmaf --enable-libzimg --enable-amf --enable-cuda-llvm --enable-cuvid --enable-ffnvcodec --enable-nvdec --enable-nvenc --enable-dxva2 --enable-d3d11va --enable-libvpl --enable-libshaderc --enable-vulkan --enable-libplacebo --enable-opencl --enable-libcdio --enable-libgme --enable-libmodplug --enable-libopenmpt --enable-libopencore-amrwb --enable-libmp3lame --enable-libshine --enable-libtheora --enable-libtwolame --enable-libvo-amrwbenc --enable-libcodec2 --enable-libilbc --enable-libgsm --enable-libopencore-amrnb --enable-libopus --enable-libspeex --enable-libvorbis --enable-ladspa --enable-libbs2b --enable-libflite --enable-libmysofa --enable-librubberband --enable-libsoxr --enable-chromaprint
2023/12/29 14:04:33 [DEBUG] [FFMPEG] 
  libavutil      58. 29.100 / 58. 29.100
2023/12/29 14:04:33 [DEBUG] [FFMPEG] 
  libavcodec     60. 31.102 / 60. 31.102
2023/12/29 14:04:33 [DEBUG] [FFMPEG] 
  libavformat    60. 16.100 / 60. 16.100
2023/12/29 14:04:33 [DEBUG] [FFMPEG] 
  libavdevice    60.  3.100 / 60.  3.100
2023/12/29 14:04:33 [DEBUG] [FFMPEG] 
  libavfilter     9. 12.100 /  9. 12.100
2023/12/29 14:04:33 [DEBUG] [FFMPEG] 
  libswscale      7.  5.100 /  7.  5.100
2023/12/29 14:04:33 [DEBUG] [FFMPEG] 
  libswresample   4. 12.100 /  4. 12.100
2023/12/29 14:04:33 [DEBUG] [FFMPEG] 
  libpostproc    57.  3.100 / 57.  3.100
2023/12/29 14:04:33 [DEBUG] [FFMPEG] 
Input #0, mov,mp4,m4a,3gp,3g2,mj2, from 'temp/pmv_tmp_1703855070589_59/original':
2023/12/29 14:04:33 [DEBUG] [FFMPEG] 
  Metadata:
2023/12/29 14:04:33 [DEBUG] [FFMPEG] 
    major_brand     : isom
2023/12/29 14:04:33 [DEBUG] [FFMPEG] 
    minor_version   : 512
2023/12/29 14:04:33 [DEBUG] [FFMPEG] 
    compatible_brands: isomiso2avc1mp41
2023/12/29 14:04:33 [DEBUG] [FFMPEG] 
    encoder         : Lavf60.16.100
2023/12/29 14:04:33 [DEBUG] [FFMPEG] 
  Duration: 00:00:10.01, start: 0.000000, bitrate: 1183 kb/s
2023/12/29 14:04:33 [DEBUG] [FFMPEG] 
  Stream #0:0[0x1](und): Video: h264 (High) (avc1 / 0x31637661), yuv420p(progressive), 1280x720 [SAR 1:1 DAR 16:9], 1047 kb/s, 24 fps, 24 tbr, 12288 tbn (default)
2023/12/29 14:04:33 [DEBUG] [FFMPEG] 
    Metadata:
2023/12/29 14:04:33 [DEBUG] [FFMPEG] 
      handler_name    : (C) 2007 Google Inc. v08.13.2007.
2023/12/29 14:04:33 [DEBUG] [FFMPEG] 
      vendor_id       : [0][0][0][0]
2023/12/29 14:04:33 [DEBUG] [FFMPEG] 
      encoder         : Lavc60.31.102 libx264
2023/12/29 14:04:33 [DEBUG] [FFMPEG] 
  Stream #0:1[0x2](und): Audio: aac (LC) (mp4a / 0x6134706D), 48000 Hz, stereo, fltp, 129 kb/s (default)
2023/12/29 14:04:33 [DEBUG] [FFMPEG] 
    Metadata:
2023/12/29 14:04:33 [DEBUG] [FFMPEG] 
      handler_name    : (C) 2007 Google Inc. v08.13.2007.
2023/12/29 14:04:33 [DEBUG] [FFMPEG] 
      vendor_id       : [0][0][0][0]
2023/12/29 14:04:33 [DEBUG] [FFMPEG] 
Stream mapping:
2023/12/29 14:04:33 [DEBUG] [FFMPEG] 
  Stream #0:0 -> #0:0 (h264 (native) -> mjpeg (native))
2023/12/29 14:04:33 [DEBUG] [FFMPEG] 
Press [q] to stop, [?] for help
2023/12/29 14:04:33 [REQUEST] (From: 127.0.0.1) GET /assets/b/0/9/original_0.mp4 (8.0206ms)
2023/12/29 14:04:33 [REQUEST] (From: 127.0.0.1) GET /assets/b/0/9/original_0.mp4 (6.9996ms)
2023/12/29 14:04:33 [DEBUG] [FFMPEG] 
[swscaler @ 000001bc1affe9c0] deprecated pixel format used, make sure you did set range correctly
2023/12/29 14:04:33 [REQUEST] (From: 127.0.0.1) POST /api/media/0/delete (2.5871ms)
=== RUN   TestAPIIntegration/Media_API/Audio
2023/12/29 14:04:33 [DEBUG] [FFPROBE] Probing temp/pmv_tmp_1703855070589_63
2023/12/29 14:04:33 [DEBUG] [FFMPEG] 
Output #0, image2, to 'temp/pmv_tmp_1703855070589_59/thumb_%d.jpg':
2023/12/29 14:04:33 [DEBUG] [FFMPEG] 
  Metadata:
2023/12/29 14:04:33 [DEBUG] [FFMPEG] 
    major_brand     : isom
2023/12/29 14:04:33 [DEBUG] [FFMPEG] 
    minor_version   : 512
2023/12/29 14:04:33 [DEBUG] [FFMPEG] 
    compatible_brands: isomiso2avc1mp41
2023/12/29 14:04:33 [DEBUG] [FFMPEG] 
    encoder         : Lavf60.16.100
2023/12/29 14:04:33 [DEBUG] [FFMPEG] 
  Stream #0:0(und): Video: mjpeg, yuvj420p(pc, progressive), 256x144 [SAR 1:1 DAR 16:9], q=2-31, 200 kb/s, 0.33 fps, 0.33 tbn (default)
2023/12/29 14:04:33 [DEBUG] [FFMPEG] 
    Metadata:
2023/12/29 14:04:33 [DEBUG] [FFMPEG] 
      handler_name    : (C) 2007 Google Inc. v08.13.2007.
2023/12/29 14:04:33 [DEBUG] [FFMPEG] 
      vendor_id       : [0][0][0][0]
2023/12/29 14:04:33 [DEBUG] [FFMPEG] 
      encoder         : Lavc60.31.102 mjpeg
2023/12/29 14:04:33 [DEBUG] [FFMPEG] 
    Side data:
2023/12/29 14:04:33 [DEBUG] [FFMPEG] 
      cpb: bitrate max/min/avg: 0/0/200000 buffer size: 0 vbv_delay: N/A
2023/12/29 14:04:33 [DEBUG] [FFMPEG] 
frame=    0 fps=0.0 q=1.6 size=       0kB time=00:00:00.00 bitrate=N/A speed=   0x    
2023/12/29 14:04:33 [REQUEST] (From: 127.0.0.1) POST /api/upload (56.7637ms)
2023/12/29 14:04:33 [REQUEST] (From: 127.0.0.1) GET /api/media/1 (568.2µs)
2023/12/29 14:04:33 [DEBUG] [FFPROBE] Probing temp/pmv_tmp_1703855070589_63
2023/12/29 14:04:33 [DEBUG] [FFMPEG] [out#0/image2 @ 000001bc18801dc0] video:18kB audio:0kB subtitle:0kB other streams:0kB global headers:0kB muxing overhead: unknown
2023/12/29 14:04:33 [DEBUG] [FFMPEG] 
frame=    3 fps=0.0 q=1.6 Lsize=N/A time=00:00:06.00 bitrate=N/A speed=57.4x    
2023/12/29 14:04:33 [DEBUG] [FFMPEG] 

2023/12/29 14:04:33 [TASK #4] [DEBUG] Task ended!
2023/12/29 14:04:33 [REQUEST] (From: 127.0.0.1) GET /api/media/1 (544.3µs)
2023/12/29 14:04:33 [REQUEST] (From: 127.0.0.1) GET /api/media/1 (447.2µs)
2023/12/29 14:04:33 [REQUEST] (From: 127.0.0.1) GET /api/media/1/size_stats (545.1µs)
2023/12/29 14:04:33 [REQUEST] (From: 127.0.0.1) GET /assets/b/1/0/original_1.mp3 (2.6141ms)
2023/12/29 14:04:33 [REQUEST] (From: 127.0.0.1) POST /api/media/1/edit/title (997.9µs)
2023/12/29 14:04:33 [REQUEST] (From: 127.0.0.1) GET /api/media/1 (0s)
2023/12/29 14:04:33 [REQUEST] (From: 127.0.0.1) POST /api/media/1/edit/description (999.7µs)
2023/12/29 14:04:33 [REQUEST] (From: 127.0.0.1) GET /api/media/1 (0s)
2023/12/29 14:04:33 [REQUEST] (From: 127.0.0.1) POST /api/media/1/edit/extra (1.0005ms)
2023/12/29 14:04:33 [REQUEST] (From: 127.0.0.1) GET /api/media/1 (0s)
2023/12/29 14:04:33 [REQUEST] (From: 127.0.0.1) POST /api/media/1/edit/time_slices (0s)
2023/12/29 14:04:33 [REQUEST] (From: 127.0.0.1) GET /api/media/1 (1.0006ms)
2023/12/29 14:04:33 [REQUEST] (From: 127.0.0.1) POST /api/media/1/edit/ext_desc (2.0002ms)
2023/12/29 14:04:33 [REQUEST] (From: 127.0.0.1) GET /api/media/1 (36.3µs)
2023/12/29 14:04:33 [REQUEST] (From: 127.0.0.1) GET /assets/b/1/1/ext_desc.txt (29.6µs)
2023/12/29 14:04:33 [DEBUG] [FFPROBE] Probing temp/pmv_tmp_1703855070589_77
2023/12/29 14:04:33 [REQUEST] (From: 127.0.0.1) POST /api/media/1/edit/thumbnail (181.8826ms)
2023/12/29 14:04:33 [REQUEST] (From: 127.0.0.1) GET /assets/b/1/2/thumbnail.jpg (1.1251ms)
2023/12/29 14:04:33 [REQUEST] (From: 127.0.0.1) GET /api/media/1 (0s)
2023/12/29 14:04:33 [DEBUG] [FFPROBE] Probing temp/pmv_tmp_1703855070589_81.srt
2023/12/29 14:04:33 [REQUEST] (From: 127.0.0.1) POST /api/media/1/subtitles/set (44.5343ms)
2023/12/29 14:04:33 [REQUEST] (From: 127.0.0.1) GET /assets/b/1/3/subrip.srt (619.4µs)
2023/12/29 14:04:33 [REQUEST] (From: 127.0.0.1) GET /api/media/1 (514.9µs)
2023/12/29 14:04:33 [REQUEST] (From: 127.0.0.1) POST /api/media/1/subtitles/remove (1.6997ms)
2023/12/29 14:04:33 [REQUEST] (From: 127.0.0.1) GET /api/media/1 (547.8µs)
2023/12/29 14:04:33 [REQUEST] (From: 127.0.0.1) POST /api/media/1/attachments/add (2.7033ms)
2023/12/29 14:04:33 [REQUEST] (From: 127.0.0.1) GET /assets/b/1/4/test-attachment.txt (658.6µs)
2023/12/29 14:04:33 [REQUEST] (From: 127.0.0.1) GET /api/media/1 (0s)
2023/12/29 14:04:33 [REQUEST] (From: 127.0.0.1) POST /api/media/1/attachments/rename (1.6775ms)
2023/12/29 14:04:33 [REQUEST] (From: 127.0.0.1) GET /api/media/1 (0s)
2023/12/29 14:04:33 [REQUEST] (From: 127.0.0.1) POST /api/media/1/attachments/remove (1.0771ms)
2023/12/29 14:04:33 [REQUEST] (From: 127.0.0.1) GET /api/media/1 (516.5µs)
2023/12/29 14:04:33 [ERROR] multipart: NextPart: EOF
2023/12/29 14:04:33 [REQUEST] (From: 127.0.0.1) POST /api/media/1/replace (554.6µs)
2023/12/29 14:04:33 [REQUEST] (From: 127.0.0.1) GET /api/media/1 (548.5µs)
2023/12/29 14:04:33 [REQUEST] (From: 127.0.0.1) POST /api/media/1/encode (1.1068ms)
2023/12/29 14:04:33 [REQUEST] (From: 127.0.0.1) GET /api/media/1 (0s)
2023/12/29 14:04:33 [REQUEST] (From: 127.0.0.1) GET /api/tasks/5 (513.9µs)
2023/12/29 14:04:33 [DEBUG] [FFPROBE] Probing temp/pmv_tmp_1703855070589_92/original
2023/12/29 14:04:33 [DEBUG] Running command: C:\\ffmpeg\bin\ffmpeg.exe -y -progress pipe:1 -f mp3 -i temp/pmv_tmp_1703855070589_92/original -f mp3 -vn temp/pmv_tmp_1703855070589_92/audio.mp3
2023/12/29 14:04:33 [DEBUG] [FFMPEG] ffmpeg version 6.1-full_build-www.gyan.dev Copyright (c) 2000-2023 the FFmpeg developers
2023/12/29 14:04:33 [DEBUG] [FFMPEG] 
  built with gcc 12.2.0 (Rev10, Built by MSYS2 project)
2023/12/29 14:04:33 [DEBUG] [FFMPEG] 
  configuration: --enable-gpl --enable-version3 --enable-static --pkg-config=pkgconf --disable-w32threads --disable-autodetect --enable-fontconfig --enable-iconv --enable-gnutls --enable-libxml2 --enable-gmp --enable-bzlib --enable-lzma --enable-libsnappy --enable-zlib --enable-librist --enable-libsrt --enable-libssh --enable-libzmq --enable-avisynth --enable-libbluray --enable-libcaca --enable-sdl2 --enable-libaribb24 --enable-libaribcaption --enable-libdav1d --enable-libdavs2 --enable-libuavs3d --enable-libzvbi --enable-librav1e --enable-libsvtav1 --enable-libwebp --enable-libx264 --enable-libx265 --enable-libxavs2 --enable-libxvid --enable-libaom --enable-libjxl --enable-libopenjpeg --enable-libvpx --enable-mediafoundation --enable-libass --enable-frei0r --enable-libfreetype --enable-libfribidi --enable-libharfbuzz --enable-liblensfun --enable-libvidstab --enable-libvmaf --enable-libzimg --enable-amf --enable-cuda-llvm --enable-cuvid --enable-ffnvcodec --enable-nvdec --enable-nvenc --enable-dxva2 --enable-d3d11va --enable-libvpl --enable-libshaderc --enable-vulkan --enable-libplacebo --enable-opencl --enable-libcdio --enable-libgme --enable-libmodplug --enable-libopenmpt --enable-libopencore-amrwb --enable-libmp3lame --enable-libshine --enable-libtheora --enable-libtwolame --enable-libvo-amrwbenc --enable-libcodec2 --enable-libilbc --enable-libgsm --enable-libopencore-amrnb --enable-libopus --enable-libspeex --enable-libvorbis --enable-ladspa --enable-libbs2b --enable-libflite --enable-libmysofa --enable-librubberband --enable-libsoxr --enable-chromaprint
2023/12/29 14:04:33 [DEBUG] [FFMPEG] 
  libavutil      58. 29.100 / 58. 29.100
2023/12/29 14:04:33 [DEBUG] [FFMPEG] 
  libavcodec     60. 31.102 / 60. 31.102
2023/12/29 14:04:33 [DEBUG] [FFMPEG] 
  libavformat    60. 16.100 / 60. 16.100
2023/12/29 14:04:33 [DEBUG] [FFMPEG] 
  libavdevice    60.  3.100 / 60.  3.100
2023/12/29 14:04:33 [DEBUG] [FFMPEG] 
  libavfilter     9. 12.100 /  9. 12.100
2023/12/29 14:04:33 [DEBUG] [FFMPEG] 
  libswscale      7.  5.100 /  7.  5.100
2023/12/29 14:04:33 [DEBUG] [FFMPEG] 
  libswresample   4. 12.100 /  4. 12.100
2023/12/29 14:04:33 [DEBUG] [FFMPEG] 
  libpostproc    57.  3.100 / 57.  3.100
2023/12/29 14:04:33 [DEBUG] [FFMPEG] 
Input #0, mp3, from 'temp/pmv_tmp_1703855070589_92/original':
2023/12/29 14:04:33 [DEBUG] [FFMPEG] 
  Metadata:
2023/12/29 14:04:33 [DEBUG] [FFMPEG] 
    COMPATIBLE_BRANDS: isomavc1mp42
2023/12/29 14:04:33 [DEBUG] [FFMPEG] 
    MAJOR_BRAND     : mp42
2023/12/29 14:04:33 [DEBUG] [FFMPEG] 
    MINOR_VERSION   : 0
2023/12/29 14:04:33 [DEBUG] [FFMPEG] 
    encoder         : Lavf59.27.100
2023/12/29 14:04:33 [DEBUG] [FFMPEG] 
  Duration: 00:00:10.03, start: 0.023021, bitrate: 128 kb/s
2023/12/29 14:04:33 [DEBUG] [FFMPEG] 
  Stream #0:0: Audio: mp3, 48000 Hz, stereo, fltp, 128 kb/s
2023/12/29 14:04:33 [DEBUG] [FFMPEG] 
    Metadata:
2023/12/29 14:04:33 [DEBUG] [FFMPEG] 
      encoder         : Lavc59.37
2023/12/29 14:04:33 [DEBUG] [FFMPEG] 
Stream mapping:
2023/12/29 14:04:33 [DEBUG] [FFMPEG] 
  Stream #0:0 -> #0:0 (mp3 (mp3float) -> mp3 (libmp3lame))
2023/12/29 14:04:33 [DEBUG] [FFMPEG] 
Press [q] to stop, [?] for help
2023/12/29 14:04:33 [DEBUG] [FFMPEG] 
Output #0, mp3, to 'temp/pmv_tmp_1703855070589_92/audio.mp3':
2023/12/29 14:04:33 [DEBUG] [FFMPEG] 
  Metadata:
2023/12/29 14:04:33 [DEBUG] [FFMPEG] 
    COMPATIBLE_BRANDS: isomavc1mp42
2023/12/29 14:04:33 [DEBUG] [FFMPEG] 
    MAJOR_BRAND     : mp42
2023/12/29 14:04:33 [DEBUG] [FFMPEG] 
    MINOR_VERSION   : 0
2023/12/29 14:04:33 [DEBUG] [FFMPEG] 
    TSSE            : Lavf60.16.100
2023/12/29 14:04:33 [DEBUG] [FFMPEG] 
  Stream #0:0: Audio: mp3, 48000 Hz, stereo, fltp
2023/12/29 14:04:33 [DEBUG] [FFMPEG] 
    Metadata:
2023/12/29 14:04:33 [DEBUG] [FFMPEG] 
      encoder         : Lavc60.31.102 libmp3lame
2023/12/29 14:04:33 [DEBUG] [FFMPEG] 
size=       0kB time=N/A bitrate=N/A speed=N/A    
2023/12/29 14:04:34 [REQUEST] (From: 127.0.0.1) GET /api/media/1 (1.0701ms)
2023/12/29 14:04:34 [REQUEST] (From: 127.0.0.1) GET /api/tasks/5 (551.3µs)
2023/12/29 14:04:34 [REQUEST] (From: 127.0.0.1) GET /api/media/1 (517.1µs)
2023/12/29 14:04:34 [REQUEST] (From: 127.0.0.1) GET /api/tasks/5 (516.9µs)
2023/12/29 14:04:34 [DEBUG] [FFMPEG] [out#0/mp3 @ 000001d66ae0b640] video:0kB audio:157kB subtitle:0kB other streams:0kB global headers:0kB muxing overhead: 0.208084%
2023/12/29 14:04:34 [DEBUG] [FFMPEG] 
size=     157kB time=00:00:09.98 bitrate= 128.9kbits/s speed=59.5x    
2023/12/29 14:04:34 [DEBUG] [FFMPEG] 

2023/12/29 14:04:34 [TASK #5] [DEBUG] Task ended!
2023/12/29 14:04:34 [REQUEST] (From: 127.0.0.1) GET /api/media/1 (738.9µs)
2023/12/29 14:04:34 [REQUEST] (From: 127.0.0.1) GET /assets/b/1/5/original_1.mp3 (2.8916ms)
2023/12/29 14:04:34 [REQUEST] (From: 127.0.0.1) HEAD /assets/b/1/5/original_1.mp3 (641.8µs)
2023/12/29 14:04:34 [REQUEST] (From: 127.0.0.1) GET /assets/b/1/5/original_1.mp3 (11.2452ms)
2023/12/29 14:04:34 [REQUEST] (From: 127.0.0.1) GET /assets/b/1/5/original_1.mp3 (1.9998ms)
2023/12/29 14:04:34 [REQUEST] (From: 127.0.0.1) GET /assets/b/1/5/original_1.mp3 (2.0023ms)
2023/12/29 14:04:34 [REQUEST] (From: 127.0.0.1) GET /assets/b/1/5/original_1.mp3 (1.9979ms)
2023/12/29 14:04:34 [REQUEST] (From: 127.0.0.1) POST /api/media/1/delete (1.9727ms)
=== RUN   TestAPIIntegration/Media_API/Image
2023/12/29 14:04:34 [DEBUG] [FFPROBE] Probing temp/pmv_tmp_1703855070589_99
2023/12/29 14:04:34 [REQUEST] (From: 127.0.0.1) POST /api/upload (53.179ms)
2023/12/29 14:04:34 [REQUEST] (From: 127.0.0.1) GET /api/media/2 (583.7µs)
2023/12/29 14:04:34 [REQUEST] (From: 127.0.0.1) GET /api/media/2 (520.1µs)
2023/12/29 14:04:34 [REQUEST] (From: 127.0.0.1) GET /api/media/2 (1.1299ms)
2023/12/29 14:04:34 [REQUEST] (From: 127.0.0.1) GET /api/media/2 (0s)
2023/12/29 14:04:34 [REQUEST] (From: 127.0.0.1) GET /api/media/2/size_stats (541µs)
2023/12/29 14:04:34 [REQUEST] (From: 127.0.0.1) GET /assets/b/2/1/original_2.png (6.6752ms)
2023/12/29 14:04:34 [REQUEST] (From: 127.0.0.1) GET /assets/b/2/0/thumbnail.jpg (549.3µs)
2023/12/29 14:04:34 [REQUEST] (From: 127.0.0.1) POST /api/media/2/edit/title (1.1001ms)
2023/12/29 14:04:34 [REQUEST] (From: 127.0.0.1) GET /api/media/2 (0s)
2023/12/29 14:04:34 [REQUEST] (From: 127.0.0.1) POST /api/media/2/edit/description (1.053ms)
2023/12/29 14:04:34 [REQUEST] (From: 127.0.0.1) GET /api/media/2 (0s)
2023/12/29 14:04:34 [REQUEST] (From: 127.0.0.1) POST /api/media/2/edit/extra (1.087ms)
2023/12/29 14:04:34 [REQUEST] (From: 127.0.0.1) GET /api/media/2 (0s)
2023/12/29 14:04:34 [REQUEST] (From: 127.0.0.1) POST /api/media/2/edit/notes (999.5µs)
2023/12/29 14:04:34 [REQUEST] (From: 127.0.0.1) GET /api/media/2 (996.6µs)
2023/12/29 14:04:34 [REQUEST] (From: 127.0.0.1) GET /assets/b/2/2/notes.json (0s)
2023/12/29 14:04:34 [REQUEST] (From: 127.0.0.1) POST /api/media/2/edit/ext_desc (1.9635ms)
2023/12/29 14:04:34 [REQUEST] (From: 127.0.0.1) GET /api/media/2 (1.0001ms)
2023/12/29 14:04:34 [REQUEST] (From: 127.0.0.1) GET /assets/b/2/3/ext_desc.txt (0s)
2023/12/29 14:04:34 [DEBUG] [FFPROBE] Probing temp/pmv_tmp_1703855070589_115
2023/12/29 14:04:34 [REQUEST] (From: 127.0.0.1) POST /api/media/2/edit/thumbnail (146.5504ms)
2023/12/29 14:04:34 [REQUEST] (From: 127.0.0.1) GET /assets/b/2/4/thumbnail.jpg (526.4µs)
2023/12/29 14:04:34 [REQUEST] (From: 127.0.0.1) GET /api/media/2 (1.1461ms)
2023/12/29 14:04:34 [REQUEST] (From: 127.0.0.1) POST /api/media/2/attachments/add (2.7563ms)
2023/12/29 14:04:34 [REQUEST] (From: 127.0.0.1) GET /assets/b/2/5/test-attachment.txt (0s)
2023/12/29 14:04:34 [REQUEST] (From: 127.0.0.1) GET /api/media/2 (558.1µs)
2023/12/29 14:04:34 [REQUEST] (From: 127.0.0.1) POST /api/media/2/attachments/rename (1.0629ms)
2023/12/29 14:04:34 [REQUEST] (From: 127.0.0.1) GET /api/media/2 (542.8µs)
2023/12/29 14:04:34 [REQUEST] (From: 127.0.0.1) POST /api/media/2/attachments/remove (1.1037ms)
2023/12/29 14:04:34 [REQUEST] (From: 127.0.0.1) GET /api/media/2 (0s)
2023/12/29 14:04:34 [REQUEST] (From: 127.0.0.1) POST /api/media/2/resolution/add (9.9398ms)
2023/12/29 14:04:34 [REQUEST] (From: 127.0.0.1) GET /api/media/2 (618.3µs)
2023/12/29 14:04:34 [REQUEST] (From: 127.0.0.1) GET /api/tasks/6 (511.6µs)
2023/12/29 14:04:34 [DEBUG] [FFPROBE] Probing temp/pmv_tmp_1703855070589_126/original
2023/12/29 14:04:34 [DEBUG] Running command: C:\\ffmpeg\bin\ffmpeg.exe -y -progress pipe:1 -f png_pipe -i temp/pmv_tmp_1703855070589_126/original -vf scale=256:144 -vframes 1 -an temp/pmv_tmp_1703855070589_126/image.png
2023/12/29 14:04:34 [DEBUG] [FFMPEG] ffmpeg version 6.1-full_build-www.gyan.dev Copyright (c) 2000-2023 the FFmpeg developers
2023/12/29 14:04:34 [DEBUG] [FFMPEG] 
  built with gcc 12.2.0 (Rev10, Built by MSYS2 project)
2023/12/29 14:04:34 [DEBUG] [FFMPEG] 
  configuration: --enable-gpl --enable-version3 --enable-static --pkg-config=pkgconf --disable-w32threads --disable-autodetect --enable-fontconfig --enable-iconv --enable-gnutls --enable-libxml2 --enable-gmp --enable-bzlib --enable-lzma --enable-libsnappy --enable-zlib --enable-librist --enable-libsrt --enable-libssh --enable-libzmq --enable-avisynth --enable-libbluray --enable-libcaca --enable-sdl2 --enable-libaribb24 --enable-libaribcaption --enable-libdav1d --enable-libdavs2 --enable-libuavs3d --enable-libzvbi --enable-librav1e --enable-libsvtav1 --enable-libwebp --enable-libx264 --enable-libx265 --enable-libxavs2 --enable-libxvid --enable-libaom --enable-libjxl --enable-libopenjpeg --enable-libvpx --enable-mediafoundation --enable-libass --enable-frei0r --enable-libfreetype --enable-libfribidi --enable-libharfbuzz --enable-liblensfun --enable-libvidstab --enable-libvmaf --enable-libzimg --enable-amf --enable-cuda-llvm --enable-cuvid --enable-ffnvcodec --enable-nvdec --enable-nvenc --enable-dxva2 --enable-d3d11va --enable-libvpl --enable-libshaderc --enable-vulkan --enable-libplacebo --enable-opencl --enable-libcdio --enable-libgme --enable-libmodplug --enable-libopenmpt --enable-libopencore-amrwb --enable-libmp3lame --enable-libshine --enable-libtheora --enable-libtwolame --enable-libvo-amrwbenc --enable-libcodec2 --enable-libilbc --enable-libgsm --enable-libopencore-amrnb --enable-libopus --enable-libspeex --enable-libvorbis --enable-ladspa --enable-libbs2b --enable-libflite --enable-libmysofa --enable-librubberband --enable-libsoxr --enable-chromaprint
2023/12/29 14:04:34 [DEBUG] [FFMPEG] 
  libavutil      58. 29.100 / 58. 29.100
2023/12/29 14:04:34 [DEBUG] [FFMPEG] 
  libavcodec     60. 31.102 / 60. 31.102
2023/12/29 14:04:34 [DEBUG] [FFMPEG] 
  libavformat    60. 16.100 / 60. 16.100
2023/12/29 14:04:34 [DEBUG] [FFMPEG] 
  libavdevice    60.  3.100 / 60.  3.100
2023/12/29 14:04:34 [DEBUG] [FFMPEG] 
  libavfilter     9. 12.100 /  9. 12.100
2023/12/29 14:04:34 [DEBUG] [FFMPEG] 
  libswscale      7.  5.100 /  7.  5.100
2023/12/29 14:04:34 [DEBUG] [FFMPEG] 
  libswresample   4. 12.100 /  4. 12.100
2023/12/29 14:04:34 [DEBUG] [FFMPEG] 
  libpostproc    57.  3.100 / 57.  3.100
2023/12/29 14:04:34 [DEBUG] [FFMPEG] 
Input #0, png_pipe, from 'temp/pmv_tmp_1703855070589_126/original':
2023/12/29 14:04:34 [DEBUG] [FFMPEG] 
  Duration: N/A, bitrate: N/A
2023/12/29 14:04:34 [DEBUG] [FFMPEG] 
  Stream #0:0: Video: png, rgb24(pc, gbr/unknown/unknown), 1280x720 [SAR 1:1 DAR 16:9], 25 fps, 25 tbr, 25 tbn
2023/12/29 14:04:34 [DEBUG] [FFMPEG] 
Stream mapping:
2023/12/29 14:04:34 [DEBUG] [FFMPEG] 
  Stream #0:0 -> #0:0 (png (native) -> png (native))
2023/12/29 14:04:34 [DEBUG] [FFMPEG] 
Press [q] to stop, [?] for help
2023/12/29 14:04:34 [REQUEST] (From: 127.0.0.1) GET /api/media/2 (680.4µs)
2023/12/29 14:04:34 [REQUEST] (From: 127.0.0.1) GET /api/tasks/6 (511.2µs)
2023/12/29 14:04:34 [DEBUG] [FFMPEG] 
Output #0, image2, to 'temp/pmv_tmp_1703855070589_126/image.png':
2023/12/29 14:04:34 [DEBUG] [FFMPEG] 
  Metadata:
2023/12/29 14:04:34 [DEBUG] [FFMPEG] 
    encoder         : Lavf60.16.100
2023/12/29 14:04:34 [DEBUG] [FFMPEG] 
  Stream #0:0: Video: png, rgb24(pc, gbr/unknown/unknown, progressive), 256x144 [SAR 1:1 DAR 16:9], q=2-31, 200 kb/s, 25 fps, 25 tbn
2023/12/29 14:04:34 [DEBUG] [FFMPEG] 
    Metadata:
2023/12/29 14:04:34 [DEBUG] [FFMPEG] 
      encoder         : Lavc60.31.102 png
2023/12/29 14:04:34 [DEBUG] [FFMPEG] 
frame=    0 fps=0.0 q=-0.0 size=       0kB time=00:00:00.00 bitrate=N/A speed=   0x    
2023/12/29 14:04:34 [DEBUG] [FFMPEG] [image2 @ 000001c0094534c0] The specified filename 'temp/pmv_tmp_1703855070589_126/image.png' does not contain an image sequence pattern or a pattern is invalid.
2023/12/29 14:04:34 [DEBUG] [FFMPEG] 
[image2 @ 000001c0094534c0] Use a pattern such as %03d for an image sequence or use the -update option (with -frames:v 1 if needed) to write a single image.
2023/12/29 14:04:34 [DEBUG] [FFMPEG] 
[out#0/image2 @ 000001c0094404c0] video:44kB audio:0kB subtitle:0kB other streams:0kB global headers:0kB muxing overhead: unknown
2023/12/29 14:04:34 [DEBUG] [FFMPEG] 
frame=    1 fps=0.0 q=-0.0 Lsize=N/A time=00:00:00.00 bitrate=N/A speed=   0x    
2023/12/29 14:04:34 [DEBUG] [FFMPEG] 

2023/12/29 14:04:34 [TASK #6] [DEBUG] Task ended!
2023/12/29 14:04:34 [REQUEST] (From: 127.0.0.1) GET /api/media/2 (380.8µs)
2023/12/29 14:04:34 [REQUEST] (From: 127.0.0.1) GET /assets/b/2/6/video.png (558.3µs)
2023/12/29 14:04:34 [REQUEST] (From: 127.0.0.1) POST /api/media/2/resolution/remove (1.0699ms)
2023/12/29 14:04:34 [REQUEST] (From: 127.0.0.1) GET /api/media/2 (570.3µs)
2023/12/29 14:04:34 [ERROR] multipart: NextPart: EOF
2023/12/29 14:04:34 [REQUEST] (From: 127.0.0.1) POST /api/media/2/replace (1.3116ms)
2023/12/29 14:04:34 [REQUEST] (From: 127.0.0.1) GET /api/media/2 (0s)
2023/12/29 14:04:34 [REQUEST] (From: 127.0.0.1) POST /api/media/2/encode (2.0961ms)
2023/12/29 14:04:34 [REQUEST] (From: 127.0.0.1) GET /api/media/2 (1.1245ms)
2023/12/29 14:04:34 [REQUEST] (From: 127.0.0.1) GET /api/tasks/7 (517.7µs)
2023/12/29 14:04:34 [DEBUG] [FFPROBE] Probing temp/pmv_tmp_1703855070589_133/original
2023/12/29 14:04:35 [DEBUG] Running command: C:\\ffmpeg\bin\ffmpeg.exe -y -progress pipe:1 -f png_pipe -i temp/pmv_tmp_1703855070589_133/original -vframes 1 -an temp/pmv_tmp_1703855070589_133/image.png
2023/12/29 14:04:35 [DEBUG] [FFMPEG] ffmpeg version 6.1-full_build-www.gyan.dev Copyright (c) 2000-2023 the FFmpeg developers
2023/12/29 14:04:35 [DEBUG] [FFMPEG] 
  built with gcc 12.2.0 (Rev10, Built by MSYS2 project)
2023/12/29 14:04:35 [DEBUG] [FFMPEG] 
  configuration: --enable-gpl --enable-version3 --enable-static --pkg-config=pkgconf --disable-w32threads --disable-autodetect --enable-fontconfig --enable-iconv --enable-gnutls --enable-libxml2 --enable-gmp --enable-bzlib --enable-lzma --enable-libsnappy --enable-zlib --enable-librist --enable-libsrt --enable-libssh --enable-libzmq --enable-avisynth --enable-libbluray --enable-libcaca --enable-sdl2 --enable-libaribb24 --enable-libaribcaption --enable-libdav1d --enable-libdavs2 --enable-libuavs3d --enable-libzvbi --enable-librav1e --enable-libsvtav1 --enable-libwebp --enable-libx264 --enable-libx265 --enable-libxavs2 --enable-libxvid --enable-libaom --enable-libjxl --enable-libopenjpeg --enable-libvpx --enable-mediafoundation --enable-libass --enable-frei0r --enable-libfreetype --enable-libfribidi --enable-libharfbuzz --enable-liblensfun --enable-libvidstab --enable-libvmaf --enable-libzimg --enable-amf --enable-cuda-llvm --enable-cuvid --enable-ffnvcodec --enable-nvdec --enable-nvenc --enable-dxva2 --enable-d3d11va --enable-libvpl --enable-libshaderc --enable-vulkan --enable-libplacebo --enable-opencl --enable-libcdio --enable-libgme --enable-libmodplug --enable-libopenmpt --enable-libopencore-amrwb --enable-libmp3lame --enable-libshine --enable-libtheora --enable-libtwolame --enable-libvo-amrwbenc --enable-libcodec2 --enable-libilbc --enable-libgsm --enable-libopencore-amrnb --enable-libopus --enable-libspeex --enable-libvorbis --enable-ladspa --enable-libbs2b --enable-libflite --enable-libmysofa --enable-librubberband --enable-libsoxr --enable-chromaprint
2023/12/29 14:04:35 [DEBUG] [FFMPEG] 
  libavutil      58. 29.100 / 58. 29.100
2023/12/29 14:04:35 [DEBUG] [FFMPEG] 
  libavcodec     60. 31.102 / 60. 31.102
2023/12/29 14:04:35 [DEBUG] [FFMPEG] 
  libavformat    60. 16.100 / 60. 16.100
2023/12/29 14:04:35 [DEBUG] [FFMPEG] 
  libavdevice    60.  3.100 / 60.  3.100
2023/12/29 14:04:35 [DEBUG] [FFMPEG] 
  libavfilter     9. 12.100 /  9. 12.100
2023/12/29 14:04:35 [DEBUG] [FFMPEG] 
  libswscale      7.  5.100 /  7.  5.100
2023/12/29 14:04:35 [DEBUG] [FFMPEG] 
  libswresample   4. 12.100 /  4. 12.100
2023/12/29 14:04:35 [DEBUG] [FFMPEG] 
  libpostproc    57.  3.100 / 57.  3.100
2023/12/29 14:04:35 [DEBUG] [FFMPEG] 
Input #0, png_pipe, from 'temp/pmv_tmp_1703855070589_133/original':
2023/12/29 14:04:35 [DEBUG] [FFMPEG] 
  Duration: N/A, bitrate: N/A
2023/12/29 14:04:35 [DEBUG] [FFMPEG] 
  Stream #0:0: Video: png, rgb24(pc, gbr/unknown/unknown), 1280x720 [SAR 1:1 DAR 16:9], 25 fps, 25 tbr, 25 tbn
2023/12/29 14:04:35 [DEBUG] [FFMPEG] 
Stream mapping:
2023/12/29 14:04:35 [DEBUG] [FFMPEG] 
  Stream #0:0 -> #0:0 (png (native) -> png (native))
2023/12/29 14:04:35 [DEBUG] [FFMPEG] 
Press [q] to stop, [?] for help
2023/12/29 14:04:35 [DEBUG] [FFMPEG] 
Output #0, image2, to 'temp/pmv_tmp_1703855070589_133/image.png':
2023/12/29 14:04:35 [DEBUG] [FFMPEG] 
  Metadata:
2023/12/29 14:04:35 [DEBUG] [FFMPEG] 
    encoder         : Lavf60.16.100
2023/12/29 14:04:35 [DEBUG] [FFMPEG] 
  Stream #0:0: Video: png, rgb24(pc, gbr/unknown/unknown, progressive), 1280x720 [SAR 1:1 DAR 16:9], q=2-31, 200 kb/s, 25 fps, 25 tbn
2023/12/29 14:04:35 [DEBUG] [FFMPEG] 
    Metadata:
2023/12/29 14:04:35 [DEBUG] [FFMPEG] 
      encoder         : Lavc60.31.102 png
2023/12/29 14:04:35 [REQUEST] (From: 127.0.0.1) GET /api/media/2 (1.1566ms)
2023/12/29 14:04:35 [REQUEST] (From: 127.0.0.1) GET /api/tasks/7 (0s)
2023/12/29 14:04:35 [DEBUG] [FFMPEG] 
frame=    0 fps=0.0 q=-0.0 size=       0kB time=00:00:00.00 bitrate=N/A speed=   0x    
2023/12/29 14:04:35 [DEBUG] [FFMPEG] [image2 @ 00000199e4f20380] The specified filename 'temp/pmv_tmp_1703855070589_133/image.png' does not contain an image sequence pattern or a pattern is invalid.
2023/12/29 14:04:35 [DEBUG] [FFMPEG] 
[image2 @ 00000199e4f20380] Use a pattern such as %03d for an image sequence or use the -update option (with -frames:v 1 if needed) to write a single image.
2023/12/29 14:04:35 [DEBUG] [FFMPEG] 
[out#0/image2 @ 00000199e55a3e80] video:573kB audio:0kB subtitle:0kB other streams:0kB global headers:0kB muxing overhead: unknown
2023/12/29 14:04:35 [DEBUG] [FFMPEG] 
frame=    1 fps=0.0 q=-0.0 Lsize=N/A time=00:00:00.00 bitrate=N/A speed=   0x    
2023/12/29 14:04:35 [DEBUG] [FFMPEG] 

2023/12/29 14:04:35 [TASK #7] [DEBUG] Task ended!
2023/12/29 14:04:35 [REQUEST] (From: 127.0.0.1) GET /api/media/2 (811.1µs)
2023/12/29 14:04:35 [REQUEST] (From: 127.0.0.1) GET /assets/b/2/7/original_2.png (6.4734ms)
2023/12/29 14:04:35 [REQUEST] (From: 127.0.0.1) HEAD /assets/b/2/7/original_2.png (0s)
2023/12/29 14:04:35 [REQUEST] (From: 127.0.0.1) GET /assets/b/2/7/original_2.png (5.9348ms)
2023/12/29 14:04:35 [REQUEST] (From: 127.0.0.1) GET /assets/b/2/7/original_2.png (6.9818ms)
2023/12/29 14:04:35 [REQUEST] (From: 127.0.0.1) GET /assets/b/2/7/original_2.png (6.3207ms)
2023/12/29 14:04:35 [REQUEST] (From: 127.0.0.1) GET /assets/b/2/7/original_2.png (6.5883ms)
2023/12/29 14:04:35 [REQUEST] (From: 127.0.0.1) POST /api/media/2/delete (3.5618ms)
=== RUN   TestAPIIntegration/Tags_API
2023/12/29 14:04:35 [DEBUG] [FFPROBE] Probing temp/pmv_tmp_1703855070589_140
2023/12/29 14:04:35 [REQUEST] (From: 127.0.0.1) POST /api/upload (55.2454ms)
2023/12/29 14:04:35 [REQUEST] (From: 127.0.0.1) GET /api/media/3 (0s)
2023/12/29 14:04:35 [REQUEST] (From: 127.0.0.1) GET /api/media/3 (562.3µs)
2023/12/29 14:04:35 [REQUEST] (From: 127.0.0.1) GET /api/media/3 (524.5µs)
2023/12/29 14:04:35 [REQUEST] (From: 127.0.0.1) POST /api/tags/add (3.1253ms)
2023/12/29 14:04:35 [REQUEST] (From: 127.0.0.1) GET /api/media/3 (0s)
2023/12/29 14:04:35 [REQUEST] (From: 127.0.0.1) GET /api/tags (0s)
2023/12/29 14:04:35 [REQUEST] (From: 127.0.0.1) POST /api/tags/remove (2.5098ms)
2023/12/29 14:04:35 [REQUEST] (From: 127.0.0.1) GET /api/media/3 (0s)
2023/12/29 14:04:35 [REQUEST] (From: 127.0.0.1) GET /api/tags (0s)
=== RUN   TestAPIIntegration/Search_API
2023/12/29 14:04:35 [DEBUG] [FFPROBE] Probing temp/pmv_tmp_1703855070589_155
2023/12/29 14:04:35 [REQUEST] (From: 127.0.0.1) POST /api/upload (54.2725ms)
2023/12/29 14:04:35 [REQUEST] (From: 127.0.0.1) GET /api/media/4 (520.8µs)
2023/12/29 14:04:35 [REQUEST] (From: 127.0.0.1) GET /api/media/4 (538.7µs)
2023/12/29 14:04:35 [REQUEST] (From: 127.0.0.1) GET /api/media/4 (540µs)
2023/12/29 14:04:35 [DEBUG] [FFPROBE] Probing temp/pmv_tmp_1703855070589_164
2023/12/29 14:04:35 [REQUEST] (From: 127.0.0.1) POST /api/upload (46.0141ms)
2023/12/29 14:04:35 [REQUEST] (From: 127.0.0.1) GET /api/media/5 (750.6µs)
2023/12/29 14:04:35 [REQUEST] (From: 127.0.0.1) GET /api/media/5 (553.9µs)
2023/12/29 14:04:36 [REQUEST] (From: 127.0.0.1) GET /api/media/5 (995.4µs)
2023/12/29 14:04:36 [DEBUG] [FFPROBE] Probing temp/pmv_tmp_1703855070589_173
2023/12/29 14:04:36 [REQUEST] (From: 127.0.0.1) POST /api/upload (46.4583ms)
2023/12/29 14:04:36 [REQUEST] (From: 127.0.0.1) GET /api/media/6 (1.1551ms)
2023/12/29 14:04:36 [REQUEST] (From: 127.0.0.1) GET /api/media/6 (549.3µs)
2023/12/29 14:04:36 [REQUEST] (From: 127.0.0.1) GET /api/media/6 (998.6µs)
2023/12/29 14:04:36 [REQUEST] (From: 127.0.0.1) GET /api/search (232µs)
2023/12/29 14:04:36 [REQUEST] (From: 127.0.0.1) POST /api/tags/add (2.6447ms)
2023/12/29 14:04:36 [REQUEST] (From: 127.0.0.1) GET /api/media/4 (995.1µs)
2023/12/29 14:04:36 [REQUEST] (From: 127.0.0.1) POST /api/tags/add (1.9994ms)
2023/12/29 14:04:36 [REQUEST] (From: 127.0.0.1) GET /api/media/6 (0s)
2023/12/29 14:04:36 [REQUEST] (From: 127.0.0.1) GET /api/search (0s)
2023/12/29 14:04:36 [REQUEST] (From: 127.0.0.1) POST /api/tags/remove (3ms)
2023/12/29 14:04:36 [REQUEST] (From: 127.0.0.1) GET /api/media/4 (0s)
2023/12/29 14:04:36 [REQUEST] (From: 127.0.0.1) GET /api/search (999.4µs)
2023/12/29 14:04:36 [REQUEST] (From: 127.0.0.1) GET /api/random (0s)
2023/12/29 14:04:36 [REQUEST] (From: 127.0.0.1) GET /api/random (1.0713ms)
=== RUN   TestAPIIntegration/Albums_API
2023/12/29 14:04:36 [REQUEST] (From: 127.0.0.1) POST /api/albums (927.8µs)
2023/12/29 14:04:36 [REQUEST] (From: 127.0.0.1) GET /api/albums/0 (997.9µs)
2023/12/29 14:04:36 [REQUEST] (From: 127.0.0.1) POST /api/albums (1.0009ms)
2023/12/29 14:04:36 [REQUEST] (From: 127.0.0.1) GET /api/albums/1 (0s)
2023/12/29 14:04:36 [REQUEST] (From: 127.0.0.1) GET /api/albums (0s)
2023/12/29 14:04:36 [REQUEST] (From: 127.0.0.1) POST /api/albums/1/rename (969.5µs)
2023/12/29 14:04:36 [REQUEST] (From: 127.0.0.1) GET /api/albums/1 (0s)
2023/12/29 14:04:36 [DEBUG] [FFPROBE] Probing temp/pmv_tmp_1703855070589_192
2023/12/29 14:04:36 [REQUEST] (From: 127.0.0.1) POST /api/upload (51.6588ms)
2023/12/29 14:04:36 [REQUEST] (From: 127.0.0.1) GET /api/media/7 (0s)
2023/12/29 14:04:36 [REQUEST] (From: 127.0.0.1) GET /api/media/7 (39.4µs)
2023/12/29 14:04:36 [REQUEST] (From: 127.0.0.1) GET /api/media/7 (564.9µs)
2023/12/29 14:04:36 [DEBUG] [FFPROBE] Probing temp/pmv_tmp_1703855070589_202
2023/12/29 14:04:36 [REQUEST] (From: 127.0.0.1) POST /api/upload (48.7365ms)
2023/12/29 14:04:36 [REQUEST] (From: 127.0.0.1) GET /api/media/8 (513.6µs)
2023/12/29 14:04:36 [REQUEST] (From: 127.0.0.1) GET /api/media/8 (540.3µs)
2023/12/29 14:04:36 [REQUEST] (From: 127.0.0.1) GET /api/media/8 (545.5µs)
2023/12/29 14:04:36 [DEBUG] [FFPROBE] Probing temp/pmv_tmp_1703855070589_212
2023/12/29 14:04:36 [REQUEST] (From: 127.0.0.1) POST /api/upload (46.8724ms)
2023/12/29 14:04:36 [REQUEST] (From: 127.0.0.1) GET /api/media/9 (0s)
2023/12/29 14:04:37 [REQUEST] (From: 127.0.0.1) GET /api/media/9 (574µs)
2023/12/29 14:04:37 [REQUEST] (From: 127.0.0.1) GET /api/media/9 (352.1µs)
2023/12/29 14:04:37 [REQUEST] (From: 127.0.0.1) GET /api/albums/0 (565.9µs)
2023/12/29 14:04:37 [REQUEST] (From: 127.0.0.1) GET /api/albums/1 (0s)
2023/12/29 14:04:37 [REQUEST] (From: 127.0.0.1) POST /api/albums/1/add (1.0502ms)
2023/12/29 14:04:37 [REQUEST] (From: 127.0.0.1) GET /api/albums/1 (0s)
2023/12/29 14:04:37 [REQUEST] (From: 127.0.0.1) POST /api/albums/1/remove (1.0594ms)
2023/12/29 14:04:37 [REQUEST] (From: 127.0.0.1) GET /api/albums/1 (0s)
2023/12/29 14:04:37 [REQUEST] (From: 127.0.0.1) POST /api/albums/1/set (1.1266ms)
2023/12/29 14:04:37 [REQUEST] (From: 127.0.0.1) GET /api/albums/1 (0s)
2023/12/29 14:04:37 [REQUEST] (From: 127.0.0.1) POST /api/albums/1/move (758.5µs)
2023/12/29 14:04:37 [REQUEST] (From: 127.0.0.1) GET /api/albums/1 (92.1µs)
2023/12/29 14:04:37 [REQUEST] (From: 127.0.0.1) POST /api/albums/1/move (1.033ms)
2023/12/29 14:04:37 [REQUEST] (From: 127.0.0.1) GET /api/albums/1 (514.6µs)
2023/12/29 14:04:37 [REQUEST] (From: 127.0.0.1) POST /api/albums/1/move (1.0676ms)
2023/12/29 14:04:37 [REQUEST] (From: 127.0.0.1) GET /api/albums/1 (0s)
2023/12/29 14:04:37 [REQUEST] (From: 127.0.0.1) POST /api/albums/1/delete (518.4µs)
2023/12/29 14:04:37 [REQUEST] (From: 127.0.0.1) GET /api/albums/1 (116µs)
2023/12/29 14:04:37 [REQUEST] (From: 127.0.0.1) GET /api/albums (515.7µs)
=== RUN   TestAPIIntegration/Config_API
2023/12/29 14:04:37 [REQUEST] (From: 127.0.0.1) GET /api/config (517.6µs)
2023/12/29 14:04:37 [REQUEST] (From: 127.0.0.1) POST /api/config (509.4µs)
2023/12/29 14:04:37 [REQUEST] (From: 127.0.0.1) GET /api/config (0s)
=== RUN   TestAPIIntegration/Tasks_API
2023/12/29 14:04:37 [REQUEST] (From: 127.0.0.1) GET /api/tasks (0s)
2023/12/29 14:04:37 [REQUEST] (From: 127.0.0.1) POST /api/auth/logout (0s)
--- PASS: TestAPIIntegration (6.57s)
    --- PASS: TestAPIIntegration/Account_API (0.01s)
    --- PASS: TestAPIIntegration/Admin_API (0.00s)
    --- PASS: TestAPIIntegration/Media_API (4.60s)
        --- PASS: TestAPIIntegration/Media_API/Video (2.84s)
        --- PASS: TestAPIIntegration/Media_API/Audio (0.80s)
        --- PASS: TestAPIIntegration/Media_API/Image (0.96s)
    --- PASS: TestAPIIntegration/Tags_API (0.28s)
    --- PASS: TestAPIIntegration/Search_API (0.82s)
    --- PASS: TestAPIIntegration/Albums_API (0.83s)
    --- PASS: TestAPIIntegration/Config_API (0.00s)
    --- PASS: TestAPIIntegration/Tasks_API (0.00s)
=== RUN   TestReadWriteLock
--- PASS: TestReadWriteLock (0.23s)
=== RUN   TestVaultAlbumManager
--- PASS: TestVaultAlbumManager (0.01s)
=== RUN   TestVaultTagManager
--- PASS: TestVaultTagManager (0.03s)
PASS
ok  	github.com/AgustinSRG/PersonalMediaVault/backend	6.914s
